<?xml version="1.0" standalone="no"?>
<!DOCTYPE svg PUBLIC "-//W3C//DTD SVG 1.1//EN" "http://www.w3.org/Graphics/SVG/1.1/DTD/svg11.dtd" >
<svg xmlns="http://www.w3.org/2000/svg" xmlns:xlink="http://www.w3.org/1999/xlink" version="1.1">
<metadata>
Created by FontForge 20161116 at Mon Jun 13 17:34:27 2011
 By Jimmy Warting
Designed by Christian Schwartz 2004?2010. Originally designed 1957-1961 by Max Miedinger with art direction by Eduard Hoffmann. Released as Neue Haas Grotesk by the Haas'sche Schriftgiesserei, and then revised and released as Helvetica by Linotype AG. Revival originally commissioned in 2004 by Mark Porter at The Guardian. Completed in 2010 for Richard Turley at Bloomberg Businessweek. Thinnest weight designed by Berton Hasebe.
</metadata>
<defs>
<font id="NeueHaasGroteskDisp-Bold" horiz-adv-x="566" >
  <font-face 
    font-family="NeueHaasGroteskDisp"
    font-weight="700"
    font-stretch="normal"
    units-per-em="1000"
    panose-1="2 0 8 3 0 0 0 2 0 3"
    ascent="800"
    descent="-200"
    x-height="511"
    cap-height="715"
    bbox="-181 -263 1248 935"
    underline-thickness="20"
    underline-position="-133"
    unicode-range="U+0020-FB02"
  />
<missing-glyph horiz-adv-x="155" 
 />
    <glyph glyph-name=".notdef" horiz-adv-x="155" 
 />
    <glyph glyph-name="space" unicode=" " horiz-adv-x="155" 
 />
    <glyph glyph-name="exclam" unicode="!" horiz-adv-x="264" 
d="M90 234l-42 312v169h168v-169l-42 -312h-84zM47 0v168h170v-168h-170z" />
    <glyph glyph-name="quotedbl" unicode="&#x22;" horiz-adv-x="425" 
d="M41 446v269h141v-269h-141zM243 446v269h141v-269h-141z" />
    <glyph glyph-name="numbersign" unicode="#" horiz-adv-x="600" 
d="M89 0l28 173h-93l22 126h92l16 100h-93l22 126h92l27 161h104l-27 -161h103l27 161h104l-27 -161h94l-22 -126h-93l-16 -100h92l-21 -126h-92l-28 -173h-104l28 173h-103l-28 -173h-104zM242 299h103l16 100h-103z" />
    <glyph glyph-name="dollar" unicode="$" horiz-adv-x="623" 
d="M281 -103v90c-167 11 -262 91 -265 234h166c7 -59 40 -93 99 -102v162c-136 35 -246 67 -246 216c0 128 105 197 246 202v61h61v-62c140 -11 229 -80 236 -213h-157c-7 49 -34 75 -79 84v-146c152 -35 251 -84 251 -220s-108 -209 -251 -217v-89h-61zM281 439v132
c-53 -5 -82 -29 -82 -64c0 -37 25 -52 82 -68zM342 263v-144c47 7 84 28 84 71c0 41 -28 57 -84 73z" />
    <glyph glyph-name="percent" unicode="%" horiz-adv-x="868" 
d="M203 386c43 0 60 45 60 113s-17 116 -60 116s-60 -48 -60 -116c0 -67 17 -113 60 -113zM203 299c-104 0 -183 79 -183 200c0 122 76 201 183 201c108 0 183 -79 183 -201c0 -121 -76 -200 -183 -200zM203 0l369 686h94l-370 -686h-93zM666 70c43 0 60 46 60 114
c0 67 -19 115 -60 115c-43 0 -60 -47 -60 -115s17 -114 60 -114zM665 -17c-104 0 -183 78 -183 201c0 121 79 200 183 200c109 0 184 -77 184 -200s-76 -201 -184 -201z" />
    <glyph glyph-name="ampersand" unicode="&#x26;" horiz-adv-x="697" 
d="M276 -12c-165 0 -254 91 -254 210c0 109 70 169 158 209c-35 41 -55 82 -55 138c0 99 77 174 201 174c117 0 202 -66 202 -172c0 -88 -60 -136 -132 -171l86 -108c12 28 22 59 27 90h141c-7 -69 -34 -140 -78 -204l123 -154h-199l-35 45c-55 -35 -117 -57 -185 -57z
M283 119c35 0 67 10 97 31l-121 157c-51 -31 -68 -64 -68 -105c0 -51 39 -83 92 -83zM326 460c41 24 57 53 57 86c0 31 -22 55 -53 55c-33 0 -54 -23 -54 -55s22 -61 50 -86z" />
    <glyph glyph-name="quotesingle" unicode="'" horiz-adv-x="223" 
d="M41 446v269h141v-269h-141z" />
    <glyph glyph-name="parenleft" unicode="(" horiz-adv-x="341" 
d="M324 -138h-137c-70 104 -130 253 -130 433c0 192 60 355 129 459h138c-60 -116 -106 -262 -106 -459c0 -181 53 -323 106 -433z" />
    <glyph glyph-name="parenright" unicode=")" horiz-adv-x="341" 
d="M154 -138h-137c58 119 106 267 106 456c0 188 -50 327 -106 436h138c67 -102 129 -251 129 -436c0 -186 -58 -350 -130 -456z" />
    <glyph glyph-name="asterisk" unicode="*" horiz-adv-x="441" 
d="M148 353l-74 54l74 98l-117 39l32 83l111 -39v127h94v-127l111 39l32 -83l-117 -39l74 -98l-72 -54l-74 104z" />
    <glyph glyph-name="plus" unicode="+" 
d="M213 79v185h-173v131h173v184h140v-184h173v-131h-173v-185h-140z" />
    <glyph glyph-name="comma" unicode="," horiz-adv-x="235" 
d="M34 -179v69c48 13 78 53 78 110h-80v168h171v-155c0 -64 -16 -105 -47 -137c-31 -33 -75 -52 -122 -55z" />
    <glyph glyph-name="hyphen" unicode="-" horiz-adv-x="335" 
d="M32 181v140h272v-140h-272z" />
    <glyph glyph-name="period" unicode="." horiz-adv-x="235" 
d="M32 0v168h171v-168h-171z" />
    <glyph glyph-name="slash" unicode="/" horiz-adv-x="437" 
d="M12 0l267 715h140l-267 -715h-140z" />
    <glyph glyph-name="zero" unicode="0" horiz-adv-x="653" 
d="M327 116c93 0 129 91 129 226c0 132 -37 227 -129 227s-130 -93 -130 -227c0 -133 38 -226 130 -226zM326 -16c-179 0 -302 140 -302 358s123 358 303 358c184 0 303 -140 303 -358s-123 -358 -304 -358z" />
    <glyph glyph-name="one" unicode="1" horiz-adv-x="406" 
d="M173 0v438h-147v114c92 3 165 46 182 139h134v-691h-169z" />
    <glyph glyph-name="two" unicode="2" horiz-adv-x="581" 
d="M554 0h-532c3 113 52 182 121 238c63 53 141 103 196 151c28 25 45 50 45 85c0 53 -30 89 -89 89c-33 0 -57 -10 -74 -31c-20 -23 -30 -54 -31 -101h-158c0 80 14 129 47 174c39 56 112 94 220 94c165 0 254 -98 254 -219c0 -96 -53 -149 -114 -197
c-61 -50 -134 -91 -183 -143v-1h298v-139z" />
    <glyph glyph-name="three" unicode="3" horiz-adv-x="599" 
d="M306 -16c-97 0 -168 23 -216 66c-51 45 -76 107 -76 187h159c4 -73 39 -124 126 -124c69 0 107 38 107 95c0 60 -41 90 -117 90h-41v117h37c64 0 106 28 106 80c0 47 -33 78 -90 78c-73 0 -105 -45 -109 -105h-157c3 136 97 231 268 231c151 0 254 -72 254 -193
c0 -71 -43 -113 -104 -137v-2c76 -23 124 -76 124 -168c0 -147 -127 -215 -271 -215z" />
    <glyph glyph-name="four" unicode="4" horiz-adv-x="620" 
d="M340 0v152h-319v155l317 385h166v-412h99v-128h-99v-152h-164zM148 280h192v235h-2l-190 -233v-2z" />
    <glyph glyph-name="five" unicode="5" horiz-adv-x="603" 
d="M303 -16c-157 0 -274 74 -290 221h165c11 -59 60 -87 121 -87c68 0 111 48 111 117c0 71 -45 113 -112 113c-44 0 -79 -19 -98 -42h-158l70 379h425v-135h-304l-24 -122h2c25 23 70 41 133 41c131 0 236 -91 236 -235c0 -152 -113 -250 -277 -250z" />
    <glyph glyph-name="six" unicode="6" horiz-adv-x="618" 
d="M326 -16c-200 0 -301 149 -301 353c-1 113 23 206 83 274c49 56 118 88 217 88c143 0 232 -71 253 -183h-161c-11 35 -34 63 -90 63c-84 0 -130 -62 -135 -173h2c37 39 82 65 157 65c132 0 247 -96 247 -243s-115 -244 -272 -244zM320 110c69 0 118 50 118 117
c0 68 -49 120 -118 120c-73 0 -119 -51 -119 -120c0 -68 48 -117 119 -117z" />
    <glyph glyph-name="seven" unicode="7" horiz-adv-x="545" 
d="M288 0h-176c8 249 139 441 235 540v2h-330v143h507v-130c-121 -121 -228 -320 -236 -555z" />
    <glyph glyph-name="eight" unicode="8" horiz-adv-x="609" 
d="M306 -16c-170 0 -287 82 -287 212c0 79 44 139 119 171v3c-61 29 -91 75 -91 138c0 114 100 191 258 191c160 0 257 -71 257 -188c0 -60 -34 -106 -90 -137v-3c76 -29 119 -91 119 -171c0 -133 -117 -216 -285 -216zM305 109c71 0 118 38 118 98c0 61 -45 102 -117 102
s-120 -41 -120 -102c0 -60 47 -98 119 -98zM304 416c64 0 102 35 102 84s-38 83 -102 83s-101 -34 -101 -83s37 -84 101 -84z" />
    <glyph glyph-name="nine" unicode="9" horiz-adv-x="617" 
d="M302 -16c-148 0 -241 76 -260 186h160c11 -35 39 -65 96 -65c39 0 69 13 89 39c24 29 37 74 39 136h-2c-35 -39 -81 -67 -153 -67c-139 0 -250 94 -250 242c0 147 116 244 276 244c85 0 158 -28 206 -77c60 -58 90 -150 90 -275c0 -107 -22 -202 -71 -266
s-120 -97 -220 -97zM301 337c71 0 122 49 122 118s-50 119 -122 119s-120 -50 -120 -118s45 -119 120 -119z" />
    <glyph glyph-name="colon" unicode=":" horiz-adv-x="241" 
d="M35 0v168h171v-168h-171zM35 310v168h171v-168h-171z" />
    <glyph glyph-name="semicolon" unicode=";" horiz-adv-x="241" 
d="M37 -179v69c48 13 78 53 78 110h-80v168h171v-155c0 -64 -16 -105 -47 -137c-31 -33 -75 -52 -122 -55zM35 310v168h171v-168h-171z" />
    <glyph glyph-name="less" unicode="&#x3c;" horiz-adv-x="502" 
d="M455 62l-412 173v148l412 173v-143l-183 -71c-19 -7 -42 -15 -61 -22c-11 -4 -23 -8 -34 -12v-2c11 -3 23 -7 34 -10c19 -7 42 -12 61 -19l183 -66v-149z" />
    <glyph glyph-name="equal" unicode="=" horiz-adv-x="563" 
d="M51 140v127h468v-127h-468zM51 352v127h468v-127h-468z" />
    <glyph glyph-name="greater" unicode="&#x3e;" horiz-adv-x="502" 
d="M47 62v144l183 71c19 7 42 15 61 22c11 3 23 7 34 11v2c-11 3 -23 7 -34 10c-19 7 -42 13 -61 20l-183 66v148l412 -173v-148z" />
    <glyph glyph-name="question" unicode="?" horiz-adv-x="553" 
d="M335 234h-144c0 102 21 127 69 167c44 41 101 56 101 117c0 47 -37 75 -85 75c-60 0 -101 -39 -101 -103h-161c3 140 101 238 269 238c149 0 249 -84 249 -204c0 -95 -50 -132 -94 -162c-43 -27 -68 -41 -84 -60c-15 -19 -19 -36 -19 -68zM175 0v168h171v-168h-171z" />
    <glyph glyph-name="at" unicode="@" horiz-adv-x="909" 
d="M447 -109c-237 0 -412 155 -412 392c0 277 215 431 438 431c218 0 406 -132 406 -375c0 -167 -84 -261 -203 -261c-72 0 -124 25 -147 81h-2c-29 -49 -73 -78 -133 -78c-101 0 -164 75 -164 196c0 140 74 241 195 241c57 0 92 -27 111 -72h2l7 61h137l-32 -271
c-7 -47 4 -72 39 -72c43 0 93 44 93 173c0 196 -129 291 -310 291c-183 0 -336 -125 -336 -344c0 -179 110 -308 312 -308c64 0 125 14 178 37l32 -79c-64 -31 -135 -43 -211 -43zM437 189c53 0 88 54 88 131c0 52 -22 92 -65 92c-52 0 -85 -58 -85 -131
c0 -52 19 -92 62 -92z" />
    <glyph glyph-name="A" unicode="A" horiz-adv-x="697" 
d="M-1 0l257 715h182l258 -715h-186l-42 129h-250l-41 -129h-178zM259 256h168l-54 173c-7 19 -14 43 -19 64c-3 12 -6 24 -9 37h-2c-3 -13 -7 -25 -10 -37c-7 -21 -12 -45 -19 -64z" />
    <glyph glyph-name="B" unicode="B" horiz-adv-x="671" 
d="M49 0v715h345c75 0 128 -18 167 -49c41 -34 62 -80 62 -137c0 -72 -36 -116 -100 -140v-3c79 -24 128 -90 128 -175c0 -72 -26 -124 -73 -160c-43 -34 -102 -51 -176 -51h-353zM224 142h158c59 0 94 33 94 84c0 57 -41 86 -96 86h-156v-170zM224 432h144
c51 0 86 25 86 72c0 45 -33 71 -85 71h-145v-143z" />
    <glyph glyph-name="C" unicode="C" horiz-adv-x="702" 
d="M373 -16c-211 0 -353 158 -353 371s139 374 352 374c84 0 153 -24 204 -63c63 -47 98 -117 107 -197h-177c-9 64 -59 113 -135 113c-116 0 -171 -96 -171 -227s66 -226 172 -226c80 0 131 50 139 119h177c-5 -72 -37 -136 -86 -183c-56 -53 -128 -81 -229 -81z" />
    <glyph glyph-name="D" unicode="D" horiz-adv-x="705" 
d="M226 149h104c117 0 176 72 176 204c0 131 -62 214 -174 214h-106v-418zM49 0v715h305c197 0 331 -143 331 -362c0 -127 -44 -227 -124 -288c-56 -43 -127 -65 -218 -65h-294z" />
    <glyph glyph-name="E" unicode="E" horiz-adv-x="628" 
d="M49 0v715h542v-146h-365v-128h313v-138h-313v-153h371v-150h-548z" />
    <glyph glyph-name="F" unicode="F" horiz-adv-x="602" 
d="M49 0v715h532v-149h-355v-145h297v-143h-297v-278h-177z" />
    <glyph glyph-name="G" unicode="G" horiz-adv-x="737" 
d="M361 -16c-103 0 -184 36 -244 100c-63 68 -96 162 -96 271c0 113 38 211 106 279c60 60 141 95 245 95c185 0 293 -98 317 -248h-172c-13 59 -60 102 -139 102c-118 0 -177 -98 -177 -228c0 -132 68 -228 180 -228c93 0 147 61 155 125v2h-134v130h298v-384h-124l-10 86
h-2c-47 -73 -116 -102 -203 -102z" />
    <glyph glyph-name="H" unicode="H" horiz-adv-x="703" 
d="M49 0v715h177v-271h251v271h177v-715h-177v298h-251v-298h-177z" />
    <glyph glyph-name="I" unicode="I" horiz-adv-x="276" 
d="M50 0v715h177v-715h-177z" />
    <glyph glyph-name="J" unicode="J" horiz-adv-x="545" 
d="M263 -13c-168 0 -250 92 -250 228v63h161v-59c0 -61 29 -86 78 -86c52 0 74 32 74 84v498h177v-502c0 -65 -17 -117 -51 -155c-40 -44 -105 -71 -189 -71z" />
    <glyph glyph-name="K" unicode="K" horiz-adv-x="697" 
d="M49 0v715h177v-259l246 259h210l-274 -287l290 -428h-206l-206 309l-60 -63v-246h-177z" />
    <glyph glyph-name="L" unicode="L" horiz-adv-x="565" 
d="M49 0v715h177v-565h321v-150h-498z" />
    <glyph glyph-name="M" unicode="M" horiz-adv-x="834" 
d="M49 0v715h238l87 -313c7 -23 16 -63 25 -98c5 -21 11 -42 16 -65h2c5 23 10 44 15 65c8 35 18 75 25 98l88 313h240v-715h-162v360c0 15 0 50 1 82c1 19 1 39 2 61h-2c-5 -21 -10 -40 -14 -57c-7 -31 -15 -63 -19 -76l-103 -370h-146l-102 369c-4 13 -13 46 -20 77
c-4 17 -8 36 -13 57h-2c0 -22 0 -42 1 -61c1 -32 2 -68 2 -83v-359h-159z" />
    <glyph glyph-name="N" unicode="N" horiz-adv-x="710" 
d="M49 0v715h178l212 -359c5 -11 18 -33 29 -53c7 -12 13 -25 20 -38h2c-1 16 -1 31 -1 46c-1 25 -1 52 -1 65v339h173v-715h-178l-210 354c-7 9 -19 32 -30 55c-7 13 -14 26 -21 41h-2c0 -17 0 -34 1 -49c0 -27 1 -56 1 -68v-333h-173z" />
    <glyph glyph-name="O" unicode="O" horiz-adv-x="747" 
d="M374 127c116 0 173 98 173 229s-57 230 -173 230c-115 0 -174 -99 -174 -230s59 -229 174 -229zM373 -17c-216 0 -353 159 -353 373s137 373 353 373s354 -159 354 -373s-138 -373 -354 -373z" />
    <glyph glyph-name="P" unicode="P" horiz-adv-x="652" 
d="M49 0v715h322c88 0 151 -23 195 -66c47 -43 72 -104 72 -176c0 -136 -94 -234 -242 -234h-167v-239h-180zM229 379h131c64 0 100 38 100 95s-36 92 -100 92h-131v-187z" />
    <glyph glyph-name="Q" unicode="Q" horiz-adv-x="745" 
d="M373 127c23 0 45 4 64 12l-65 63l82 85l66 -63c17 37 25 81 25 132c0 131 -56 230 -172 230c-115 0 -173 -99 -173 -230s58 -229 173 -229zM642 -58l-90 86c-51 -29 -111 -45 -180 -45c-216 0 -352 159 -352 373s136 373 352 373c217 0 353 -159 353 -373
c0 -100 -29 -186 -82 -251l81 -76z" />
    <glyph glyph-name="R" unicode="R" horiz-adv-x="671" 
d="M49 0v715h342c142 0 250 -73 250 -206c0 -84 -40 -144 -124 -173v-3c63 -21 93 -59 104 -131c16 -94 4 -184 30 -193v-9h-172c-19 11 -16 95 -27 166c-9 67 -43 102 -119 102h-107v-268h-177zM226 399h133c71 0 106 32 106 87c0 52 -34 89 -102 89h-137v-176z" />
    <glyph glyph-name="S" unicode="S" horiz-adv-x="650" 
d="M334 -17c-189 0 -316 84 -319 242h178c8 -72 55 -102 140 -102c58 0 115 21 115 75c0 57 -57 69 -156 93c-124 29 -255 67 -255 217c0 152 124 220 284 220c156 0 274 -71 282 -220h-173c-7 56 -48 86 -115 86c-63 0 -103 -27 -103 -67c0 -51 55 -62 162 -86
c132 -32 253 -72 253 -225c0 -149 -128 -233 -293 -233z" />
    <glyph glyph-name="T" unicode="T" horiz-adv-x="629" 
d="M225 0v565h-208v150h595v-150h-210v-565h-177z" />
    <glyph glyph-name="U" unicode="U" horiz-adv-x="686" 
d="M344 -13c-201 0 -300 97 -300 265v463h177v-469c0 -71 35 -117 123 -117c83 0 121 49 121 120v466h177v-463c0 -165 -99 -265 -298 -265z" />
    <glyph glyph-name="V" unicode="V" horiz-adv-x="651" 
d="M234 0l-236 715h184l112 -375c8 -27 15 -58 22 -83c3 -15 7 -29 11 -43h2c4 14 8 28 11 43c7 25 14 56 22 83l111 375h179l-235 -715h-183z" />
    <glyph glyph-name="W" unicode="W" horiz-adv-x="940" 
d="M196 0l-196 715h179l72 -300c8 -35 15 -78 22 -114c3 -21 7 -42 11 -63h2c3 19 7 38 11 58c7 33 16 76 24 112l67 307h164l67 -305c8 -37 16 -78 23 -113c3 -20 7 -40 11 -59h2l12 63c7 36 16 80 24 116l71 298h178l-196 -715h-173l-75 343c-7 28 -12 61 -17 88
c-3 15 -5 30 -8 45h-2c-3 -15 -5 -30 -8 -45c-5 -27 -9 -60 -16 -88l-75 -343h-174z" />
    <glyph glyph-name="X" unicode="X" horiz-adv-x="691" 
d="M3 0l237 375l-217 340h202l121 -208h2l123 208h192l-212 -338l237 -377h-209l-134 242h-2l-139 -242h-201z" />
    <glyph glyph-name="Y" unicode="Y" horiz-adv-x="663" 
d="M243 0v264l-242 451h193l92 -185c12 -25 23 -52 32 -73l15 -36h2l15 36c9 21 22 48 34 73l91 185h187l-242 -451v-264h-177z" />
    <glyph glyph-name="Z" unicode="Z" horiz-adv-x="648" 
d="M26 0v141l309 370c7 7 17 20 28 32c6 7 13 14 20 21v3c-10 -1 -19 -1 -28 -1c-15 -1 -32 -1 -40 -1h-264v150h557v-139l-300 -360c-9 -11 -23 -24 -35 -39c-7 -8 -15 -16 -23 -25v-3c11 0 21 0 31 1c17 0 37 1 48 1h292v-151h-595z" />
    <glyph glyph-name="bracketleft" unicode="[" horiz-adv-x="398" 
d="M58 -138v892h307v-125h-153v-642h153v-125h-307z" />
    <glyph glyph-name="backslash" unicode="\" horiz-adv-x="437" 
d="M279 0l-267 715h140l267 -715h-140z" />
    <glyph glyph-name="bracketright" unicode="]" horiz-adv-x="398" 
d="M34 -138v125h153v642h-153v125h307v-892h-307z" />
    <glyph glyph-name="asciicircum" unicode="^" horiz-adv-x="466" 
d="M6 425l167 290h120l167 -290h-145l-82 150h-1l-85 -150h-141z" />
    <glyph glyph-name="underscore" unicode="_" horiz-adv-x="430" 
d="M-3 -169v101h436v-101h-436z" />
    <glyph glyph-name="grave" unicode="`" horiz-adv-x="500" 
d="M205 572l-121 148h188l57 -148h-124z" />
    <glyph glyph-name="a" unicode="a" horiz-adv-x="541" 
d="M190 -13c-102 0 -175 55 -175 156c0 112 89 148 196 161c96 12 130 22 130 57c0 33 -21 55 -70 55c-52 0 -78 -23 -83 -66h-150c3 96 78 176 232 176c77 0 129 -14 166 -42c44 -32 65 -82 65 -146v-258c0 -41 3 -64 18 -73v-7h-158c-8 11 -13 30 -17 57h-2
c-31 -43 -75 -70 -152 -70zM242 91c61 0 103 36 103 92v61c-21 -11 -51 -19 -84 -27c-63 -15 -89 -30 -89 -69c0 -41 30 -57 70 -57z" />
    <glyph glyph-name="b" unicode="b" horiz-adv-x="586" 
d="M352 -16c-68 0 -123 28 -155 81h-2v-65h-156v715h163v-261h3c32 44 75 73 146 73c133 0 219 -116 219 -271c0 -171 -86 -272 -218 -272zM306 113c64 0 99 55 99 144c0 88 -34 146 -101 146c-72 0 -107 -63 -107 -147c0 -85 41 -143 109 -143z" />
    <glyph glyph-name="c" unicode="c" horiz-adv-x="544" 
d="M288 -16c-164 0 -272 116 -272 271s105 271 268 271c140 0 227 -81 243 -196h-157c-11 47 -37 76 -84 76c-71 0 -105 -58 -105 -151c0 -92 34 -149 105 -149c52 0 82 29 89 88h156c-5 -118 -97 -210 -243 -210z" />
    <glyph glyph-name="d" unicode="d" horiz-adv-x="588" 
d="M240 -16c-131 0 -224 101 -224 272c0 160 92 271 224 271c72 0 112 -30 143 -73h3v261h163v-715h-156v69h-2c-31 -53 -83 -85 -151 -85zM282 113c68 0 108 59 108 143c0 86 -35 148 -106 148c-65 0 -103 -59 -103 -146c0 -89 37 -145 101 -145z" />
    <glyph glyph-name="e" unicode="e" horiz-adv-x="560" 
d="M289 -15c-169 0 -273 116 -273 272c0 153 107 270 263 270c73 0 131 -24 175 -64c61 -56 91 -145 90 -249h-368c11 -69 47 -112 115 -112c43 0 70 19 85 51h159c-11 -47 -41 -90 -86 -121c-43 -31 -95 -47 -160 -47zM177 311h202c-7 61 -44 100 -97 100
c-63 0 -94 -39 -105 -100z" />
    <glyph glyph-name="f" unicode="f" horiz-adv-x="349" 
d="M77 0v408h-66v104h66v37c0 51 14 91 42 119c44 43 129 53 217 44v-115c-61 3 -96 -4 -96 -60v-25h96v-104h-96v-408h-163z" />
    <glyph glyph-name="g" unicode="g" horiz-adv-x="572" 
d="M277 -177c-141 0 -234 57 -250 165h158c9 -27 35 -50 90 -50c69 0 98 35 98 98v51h-4c-31 -35 -68 -59 -131 -59c-115 0 -222 86 -222 243c0 149 87 256 215 256c68 0 113 -27 144 -70h2v55h156v-462c0 -77 -27 -133 -68 -170c-45 -40 -112 -57 -188 -57zM276 149
c71 0 104 56 104 128c0 69 -36 127 -104 127c-61 0 -101 -49 -101 -128c0 -77 40 -127 101 -127z" />
    <glyph glyph-name="h" unicode="h" horiz-adv-x="570" 
d="M39 0v715h163v-266h3c37 49 80 78 152 78c112 0 178 -80 178 -194v-333h-163v300c0 55 -27 91 -80 91c-55 0 -90 -44 -90 -108v-283h-163z" />
    <glyph glyph-name="i" unicode="i" horiz-adv-x="241" 
d="M39 0v512h163v-512h-163zM39 583v132h163v-132h-163z" />
    <glyph glyph-name="j" unicode="j" horiz-adv-x="241" 
d="M45 -172c-28 0 -67 3 -92 8v113c57 0 86 0 86 55v508h163v-516c0 -68 -15 -103 -39 -128c-29 -29 -69 -40 -118 -40zM39 583v132h163v-132h-163z" />
    <glyph glyph-name="k" unicode="k" horiz-adv-x="560" 
d="M39 0v715h161v-376l152 173h188l-180 -192l201 -320h-189l-123 209l-49 -52v-157h-161z" />
    <glyph glyph-name="l" unicode="l" horiz-adv-x="245" 
d="M40 0v715h165v-715h-165z" />
    <glyph glyph-name="m" unicode="m" horiz-adv-x="869" 
d="M39 0v512h156v-73h3c32 53 80 88 155 88c68 0 117 -34 144 -90h2c40 63 94 90 161 90c116 0 174 -78 174 -194v-333h-163v304c0 56 -23 87 -72 87c-52 0 -81 -43 -81 -104v-287h-163v304c0 56 -23 87 -72 87c-51 0 -81 -43 -81 -104v-287h-163z" />
    <glyph glyph-name="n" unicode="n" horiz-adv-x="570" 
d="M39 0v512h157v-70h3c39 56 86 85 158 85c112 0 178 -80 178 -194v-333h-163v300c0 55 -27 91 -80 91c-55 0 -90 -44 -90 -108v-283h-163z" />
    <glyph glyph-name="o" unicode="o" horiz-adv-x="579" 
d="M289 100c72 0 109 62 109 155s-37 156 -109 156s-108 -63 -108 -156s36 -155 108 -155zM290 -16c-165 0 -274 116 -274 271s109 271 274 271s273 -116 273 -271s-108 -271 -273 -271z" />
    <glyph glyph-name="p" unicode="p" horiz-adv-x="588" 
d="M39 -169v681h156v-62h3c35 47 84 77 155 77c136 0 219 -116 219 -271c0 -166 -90 -272 -223 -272c-67 0 -113 26 -145 69h-2v-222h-163zM307 110c63 0 100 52 100 140s-32 146 -103 146c-72 0 -107 -62 -107 -146s39 -140 110 -140z" />
    <glyph glyph-name="q" unicode="q" horiz-adv-x="588" 
d="M387 -169v223h-3c-29 -43 -75 -70 -142 -70c-129 0 -222 106 -222 272c0 155 82 271 225 271c67 0 113 -28 146 -80h3v65h155v-681h-162zM286 113c65 0 106 55 106 139c0 83 -36 147 -106 147c-71 0 -101 -59 -101 -147s37 -139 101 -139z" />
    <glyph glyph-name="r" unicode="r" horiz-adv-x="383" 
d="M39 0v512h156v-80h3c36 61 77 88 140 88c15 0 26 -1 32 -4v-140h-4c-100 15 -164 -34 -164 -146v-230h-163z" />
    <glyph glyph-name="s" unicode="s" horiz-adv-x="504" 
d="M257 -16c-151 0 -244 69 -249 182h154c7 -51 39 -76 94 -76c49 0 80 18 80 51c0 47 -63 50 -130 63c-89 16 -184 38 -184 159c0 108 100 164 221 164c145 0 223 -63 231 -164h-150c-7 47 -37 60 -82 60c-40 0 -71 -15 -71 -47c0 -36 58 -42 123 -53
c90 -16 196 -38 196 -169c0 -112 -99 -170 -233 -170z" />
    <glyph glyph-name="t" unicode="t" horiz-adv-x="351" 
d="M242 -6c-95 0 -163 31 -163 141v275h-68v102h68v162h159v-162h93v-102h-93v-240c0 -40 22 -50 57 -50c15 0 29 1 36 1v-119c-15 -4 -45 -8 -89 -8z" />
    <glyph glyph-name="u" unicode="u" 
d="M215 -15c-119 0 -180 76 -180 191v336h162v-302c0 -56 25 -87 77 -87c56 0 90 42 90 103v286h163v-512h-156v63h-3c-37 -51 -81 -78 -153 -78z" />
    <glyph glyph-name="v" unicode="v" horiz-adv-x="524" 
d="M174 0l-177 512h168l70 -231c7 -27 15 -52 20 -71c3 -11 5 -22 8 -32h2c3 10 5 21 8 32c5 19 12 44 20 71l71 231h163l-177 -512h-176z" />
    <glyph glyph-name="w" unicode="w" horiz-adv-x="783" 
d="M155 0l-157 512h166l56 -212c5 -21 12 -45 16 -65c3 -12 5 -23 7 -34h2l7 35c4 20 9 44 16 67l54 209h138l56 -209c5 -23 11 -48 16 -68c3 -12 5 -24 8 -35h2c3 11 5 23 8 35c5 20 9 44 16 65l57 212h161l-157 -512h-153l-60 232c-7 20 -11 42 -15 61c-3 11 -5 21 -7 31
h-2c-2 -10 -4 -20 -7 -31c-4 -19 -11 -41 -16 -61l-61 -232h-151z" />
    <glyph glyph-name="x" unicode="x" horiz-adv-x="560" 
d="M7 0l178 269l-161 243h186l76 -132h2l72 132h171l-152 -241l174 -271h-189l-84 153h-2l-93 -153h-178z" />
    <glyph glyph-name="y" unicode="y" horiz-adv-x="529" 
d="M56 -169v127h56c48 0 67 19 67 54c0 23 -10 51 -31 106l-151 394h172l69 -218c8 -25 15 -55 22 -78c3 -13 7 -27 10 -40h2c3 13 6 27 9 40c5 23 13 53 21 78l67 218h163l-177 -519c-40 -120 -91 -162 -193 -162h-106z" />
    <glyph glyph-name="z" unicode="z" horiz-adv-x="505" 
d="M24 0v121l203 219c7 7 18 16 27 27c5 6 11 12 17 18v3c-9 -1 -18 -1 -26 -1h-37h-160v124h420v-119l-194 -211l-32 -32c-7 -7 -13 -14 -20 -21v-3h29c16 0 35 1 47 1h185v-126h-459z" />
    <glyph glyph-name="braceleft" unicode="{" horiz-adv-x="398" 
d="M365 -138h-25c-156 0 -231 42 -231 194v118c0 49 -21 72 -84 75v120c63 3 84 27 84 75v118c0 152 75 192 231 192h25v-125h-18c-59 0 -84 -10 -84 -67v-143c0 -67 -22 -91 -65 -108v-3c43 -17 65 -42 65 -107v-146c0 -56 25 -68 84 -68h18v-125z" />
    <glyph glyph-name="bar" unicode="|" horiz-adv-x="214" 
d="M58 -138v892h99v-892h-99z" />
    <glyph glyph-name="braceright" unicode="}" horiz-adv-x="398" 
d="M34 -138v125h18c57 0 84 10 84 67v146c0 65 21 90 65 107v3c-44 19 -65 41 -65 108v143c0 56 -27 68 -84 68h-18v125h25c155 0 231 -41 231 -193v-117c0 -49 22 -72 83 -75v-120c-61 -3 -83 -26 -83 -75v-119c0 -152 -76 -193 -231 -193h-25z" />
    <glyph glyph-name="asciitilde" unicode="~" horiz-adv-x="443" 
d="M126 239h-102c0 120 57 175 125 175c32 0 56 -10 80 -21c27 -13 40 -21 59 -21c25 0 33 14 36 42h102c0 -107 -39 -170 -118 -170c-33 0 -58 8 -82 19c-28 13 -44 21 -63 21c-22 0 -34 -15 -37 -45z" />
    <glyph glyph-name="Euro" unicode="&#x20ac;" horiz-adv-x="651" 
d="M368 -16c-156 0 -266 103 -298 261h-55v64h47c-1 11 -1 21 -1 32v25h-46v65h54c29 160 140 269 297 269c168 0 257 -105 270 -246h-166c-9 68 -42 112 -106 112c-68 0 -108 -51 -123 -135h154v-65h-160c-3 -11 0 -46 0 -57h160v-64h-153c17 -83 58 -126 126 -126
c71 0 103 55 111 124h162c-8 -152 -104 -259 -273 -259z" />
    <glyph glyph-name="quotesinglbase" unicode="&#x201a;" horiz-adv-x="218" 
d="M32 -149v59c39 11 71 45 71 90h-68v149h149v-131c0 -52 -16 -89 -43 -117c-28 -28 -69 -45 -109 -50z" />
    <glyph glyph-name="florin" unicode="&#x192;" horiz-adv-x="425" 
d="M-17 -151v106c46 -3 70 -1 78 53l45 307h-77v102h92l19 129c7 51 25 89 55 114c47 42 129 43 207 33v-114c-59 3 -90 3 -98 -51l-16 -111h97v-102h-112l-47 -326c-8 -56 -25 -93 -58 -118c-45 -34 -115 -30 -185 -22z" />
    <glyph glyph-name="quotedblbase" unicode="&#x201e;" horiz-adv-x="428" 
d="M32 -149v59c39 11 71 45 71 90h-68v149h149v-131c0 -52 -16 -89 -43 -117c-28 -28 -69 -45 -109 -50zM242 -149v59c39 11 71 45 71 90h-68v149h149v-131c0 -52 -16 -89 -43 -117c-28 -28 -69 -45 -109 -50z" />
    <glyph glyph-name="ellipsis" unicode="&#x2026;" horiz-adv-x="756" 
d="M32 0v168h171v-168h-171zM293 0v168h171v-168h-171zM554 0v168h170v-168h-170z" />
    <glyph glyph-name="dagger" unicode="&#x2020;" horiz-adv-x="589" 
d="M210 -143v524h-176v134h176v200h170v-200h175v-134h-175v-524h-170z" />
    <glyph glyph-name="daggerdbl" unicode="&#x2021;" horiz-adv-x="590" 
d="M210 -143v201h-176v134h176v189h-176v134h176v200h170v-200h175v-134h-175v-189h175v-134h-175v-201h-170z" />
    <glyph glyph-name="circumflex" unicode="&#x2c6;" horiz-adv-x="500" 
d="M65 574l107 137h156l107 -137h-137l-45 66h-2l-46 -66h-140z" />
    <glyph glyph-name="perthousand" unicode="&#x2030;" horiz-adv-x="1267" 
d="M203 386c43 0 60 45 60 113s-17 116 -60 116s-60 -48 -60 -116c0 -67 17 -113 60 -113zM203 299c-104 0 -183 79 -183 200c0 122 76 201 183 201c108 0 183 -79 183 -201c0 -121 -76 -200 -183 -200zM200 0l370 686h93l-369 -686h-94zM661 70c43 0 60 46 60 114
c0 67 -17 115 -60 115s-60 -47 -60 -115s17 -114 60 -114zM661 -17c-104 0 -183 78 -183 201c0 121 76 200 183 200c108 0 183 -77 183 -200s-76 -201 -183 -201zM1065 70c43 0 60 46 60 114c0 67 -19 115 -60 115c-43 0 -60 -47 -60 -115s17 -114 60 -114zM1064 -17
c-104 0 -183 78 -183 201c0 121 79 200 183 200c109 0 184 -77 184 -200s-76 -201 -184 -201z" />
    <glyph glyph-name="Scaron" unicode="&#x160;" horiz-adv-x="650" 
d="M334 -17c-189 0 -316 84 -319 242h178c8 -72 55 -102 140 -102c58 0 115 21 115 75c0 57 -57 69 -156 93c-124 29 -255 67 -255 217c0 152 124 220 284 220c156 0 274 -71 282 -220h-173c-7 56 -48 86 -115 86c-63 0 -103 -27 -103 -67c0 -51 55 -62 162 -86
c132 -32 253 -72 253 -225c0 -149 -128 -233 -293 -233zM244 750l-106 125h137l45 -54h2l45 54h140l-106 -125h-157z" />
    <glyph glyph-name="guilsinglleft" unicode="&#x2039;" horiz-adv-x="265" 
d="M214 34l-170 141v154l170 140v-149l-85 -68v-2l85 -68v-148z" />
    <glyph glyph-name="OE" unicode="&#x152;" horiz-adv-x="1077" 
d="M357 -17c-200 0 -337 159 -337 373s138 373 329 373c84 0 137 -25 180 -64v50h507v-147h-341v-129h288v-137h-288v-147h351v-155h-517v50c-43 -39 -97 -67 -172 -67zM368 127c82 0 131 48 150 88v280c-24 45 -67 91 -150 91c-109 0 -168 -99 -168 -230s59 -229 168 -229z
" />
    <glyph glyph-name="quoteleft" unicode="&#x2018;" horiz-adv-x="218" 
d="M34 421v131c0 52 16 89 43 116c27 28 69 46 109 50v-58c-39 -12 -71 -46 -71 -90h68v-149h-149z" />
    <glyph glyph-name="quoteright" unicode="&#x2019;" horiz-adv-x="218" 
d="M32 418v58c39 12 71 46 71 90h-68v149h149v-131c0 -52 -16 -89 -43 -116c-28 -29 -69 -46 -109 -50z" />
    <glyph glyph-name="quotedblleft" unicode="&#x201c;" horiz-adv-x="428" 
d="M34 421v131c0 52 16 89 43 116c27 28 69 46 109 50v-58c-39 -12 -71 -46 -71 -90h68v-149h-149zM244 421v131c0 52 16 89 43 116c27 28 69 46 109 50v-58c-39 -12 -71 -46 -71 -90h68v-149h-149z" />
    <glyph glyph-name="quotedblright" unicode="&#x201d;" horiz-adv-x="428" 
d="M32 418v58c39 12 71 46 71 90h-68v149h149v-131c0 -52 -16 -89 -43 -116c-28 -29 -69 -46 -109 -50zM242 418v58c39 12 71 46 71 90h-68v149h149v-131c0 -52 -16 -89 -43 -116c-28 -29 -69 -46 -109 -50z" />
    <glyph glyph-name="bullet" unicode="&#x2022;" horiz-adv-x="374" 
d="M187 170c-82 0 -150 68 -150 150s68 150 150 150s150 -68 150 -150s-68 -150 -150 -150z" />
    <glyph glyph-name="endash" unicode="&#x2013;" horiz-adv-x="500" 
d="M0 185v140h500v-140h-500z" />
    <glyph glyph-name="emdash" unicode="&#x2014;" horiz-adv-x="1000" 
d="M100 185v140h800v-140h-800z" />
    <glyph glyph-name="tilde" unicode="&#x2dc;" horiz-adv-x="500" 
d="M168 571h-84c0 91 46 135 103 135c25 0 47 -8 66 -19c23 -11 34 -18 49 -18c21 0 27 14 30 35h84c0 -79 -35 -132 -100 -132c-27 0 -47 8 -66 16c-24 11 -36 19 -52 19c-17 0 -27 -12 -30 -36z" />
    <glyph glyph-name="trademark" unicode="&#x2122;" horiz-adv-x="699" 
d="M314 440v275h121l43 -155h2l44 155h122v-275h-82v165h-2l-51 -165h-65l-50 165h-2v-165h-80zM109 440v203h-78v72h245v-72h-78v-203h-89z" />
    <glyph glyph-name="scaron" unicode="&#x161;" horiz-adv-x="504" 
d="M172 571l-106 138h137l45 -66h2l45 66h140l-106 -138h-157zM257 -16c-151 0 -244 69 -249 182h154c7 -51 39 -76 94 -76c49 0 80 18 80 51c0 47 -63 50 -130 63c-89 16 -184 38 -184 159c0 108 100 164 221 164c145 0 223 -63 231 -164h-150c-7 47 -37 60 -82 60
c-40 0 -71 -15 -71 -47c0 -36 58 -42 123 -53c90 -16 196 -38 196 -169c0 -112 -99 -170 -233 -170z" />
    <glyph glyph-name="guilsinglright" unicode="&#x203a;" horiz-adv-x="265" 
d="M51 34v149l85 68v2l-85 68v148l170 -141v-154z" />
    <glyph glyph-name="oe" unicode="&#x153;" horiz-adv-x="938" 
d="M290 -16c-165 0 -274 116 -274 271s109 271 274 271c80 0 143 -27 186 -74c43 47 104 75 180 75c75 0 132 -24 176 -64c60 -56 90 -145 89 -249h-368c11 -69 48 -112 116 -112c43 0 70 19 85 51h158c-11 -47 -41 -90 -85 -121c-43 -31 -94 -47 -161 -47
c-83 0 -145 27 -189 74c-43 -47 -106 -75 -187 -75zM289 100c72 0 109 62 109 155s-37 156 -109 156s-108 -63 -108 -156s36 -155 108 -155zM554 311h202c-7 61 -42 100 -97 100c-63 0 -94 -39 -105 -100z" />
    <glyph glyph-name="Ydieresis" unicode="&#x178;" horiz-adv-x="663" 
d="M243 0v264l-242 451h193l92 -185c12 -25 23 -52 32 -73l15 -36h2l15 36c9 21 22 48 34 73l91 185h187l-242 -451v-264h-177zM149 753v128h153v-128h-153zM364 753v128h153v-128h-153z" />
    <glyph glyph-name="uni00A0" unicode="&#xa0;" horiz-adv-x="155" 
 />
    <glyph glyph-name="exclamdown" unicode="&#xa1;" horiz-adv-x="264" 
d="M48 -127v170l42 312h84l42 -312v-170h-168zM47 420v168h170v-168h-170z" />
    <glyph glyph-name="cent" unicode="&#xa2;" horiz-adv-x="544" 
d="M251 -107v93c-144 16 -235 125 -235 269s91 256 235 269v70h61v-69c121 -12 196 -88 211 -195h-152c-8 35 -28 61 -59 72v-294c37 11 58 39 64 86h151c-5 -110 -86 -198 -215 -209v-92h-61zM251 109v293c-49 -16 -75 -70 -75 -147c0 -76 24 -130 75 -146z" />
    <glyph glyph-name="sterling" unicode="&#xa3;" horiz-adv-x="591" 
d="M420 -15c-101 0 -132 49 -210 49c-41 0 -73 -20 -106 -44l-81 123c56 36 95 81 95 136c0 15 -2 27 -5 40h-85v93h40c-16 29 -28 61 -28 104c0 120 92 213 265 213c79 0 141 -19 187 -56c51 -41 78 -98 81 -194h-162c-1 84 -42 118 -103 118s-91 -35 -91 -86
c0 -37 16 -67 32 -99h135v-93h-105c1 -5 1 -12 1 -16c0 -48 -27 -88 -75 -123l2 -3c20 8 43 15 72 15c72 0 84 -25 138 -25c39 0 71 21 92 40l69 -131c-39 -35 -98 -61 -158 -61z" />
    <glyph glyph-name="currency" unicode="&#xa4;" horiz-adv-x="512" 
d="M98 98l-84 82l64 64c-17 31 -25 66 -25 105c0 38 8 73 25 104l-64 66l84 82l65 -68c28 13 59 20 93 20c33 0 64 -7 92 -20l66 68l84 -82l-66 -66c17 -31 26 -65 26 -104c0 -38 -8 -73 -25 -104l65 -65l-84 -82l-66 67c-29 -13 -59 -19 -92 -19c-35 0 -66 6 -92 19z
M256 238c56 0 86 43 86 111s-30 112 -86 112c-57 0 -89 -44 -89 -112s32 -111 89 -111z" />
    <glyph glyph-name="yen" unicode="&#xa5;" horiz-adv-x="646" 
d="M240 0v128h-169v64h169v57h-169v65h143l-213 372h187l91 -175c11 -23 22 -46 30 -65c5 -11 9 -22 13 -31h2c5 9 9 20 14 31c8 19 19 42 30 65l90 175h183l-214 -372h144v-65h-168v-57h168v-64h-168v-128h-163z" />
    <glyph glyph-name="brokenbar" unicode="&#xa6;" horiz-adv-x="214" 
d="M58 -138v383h99v-383h-99zM58 384v370h99v-370h-99z" />
    <glyph glyph-name="section" unicode="&#xa7;" horiz-adv-x="625" 
d="M327 -181c-153 0 -245 79 -249 208h149c1 -53 34 -84 93 -84c47 0 74 25 74 58c0 47 -55 57 -167 100c-124 48 -198 93 -198 196c0 71 45 120 118 141c-31 27 -49 53 -49 109c0 100 90 167 218 167c135 0 222 -67 229 -191h-141c-4 44 -28 72 -81 72
c-47 0 -68 -21 -68 -49c0 -39 45 -51 146 -91c103 -42 199 -85 199 -189c0 -79 -43 -119 -111 -139c36 -27 64 -65 64 -126c0 -117 -95 -182 -226 -182zM305 230l90 -40c31 8 52 24 52 51c0 36 -48 53 -124 84c-35 15 -70 27 -99 42c-31 -8 -47 -25 -47 -50
c0 -32 32 -44 128 -87z" />
    <glyph glyph-name="dieresis" unicode="&#xa8;" horiz-adv-x="500" 
d="M61 577v128h153v-128h-153zM286 577v128h153v-128h-153z" />
    <glyph glyph-name="copyright" unicode="&#xa9;" horiz-adv-x="817" 
d="M412 135c-129 0 -215 96 -215 224c0 129 86 225 216 225c51 0 93 -15 126 -39c39 -29 61 -72 66 -123h-120c-7 32 -30 58 -73 58c-60 0 -89 -52 -89 -121c0 -71 35 -121 91 -121c45 0 71 29 75 64h121c-4 -47 -24 -88 -55 -117c-34 -33 -82 -50 -143 -50zM409 35
c175 0 307 137 307 320c0 184 -132 321 -307 321c-176 0 -308 -137 -308 -321c0 -183 132 -320 308 -320zM409 -17c-206 0 -369 158 -369 372s163 373 369 373s368 -159 368 -373s-162 -372 -368 -372z" />
    <glyph glyph-name="ordfeminine" unicode="&#xaa;" horiz-adv-x="510" 
d="M182 226c-89 0 -157 48 -157 137c0 100 76 128 175 141c88 11 115 22 115 50s-16 47 -60 47c-48 0 -69 -21 -73 -57h-137c3 84 72 155 208 155c69 0 116 -12 149 -37c40 -28 59 -72 59 -128v-227c0 -35 5 -57 16 -64v-7h-144c-7 11 -12 27 -15 50h-2
c-27 -37 -67 -60 -134 -60zM227 318c53 0 92 31 92 79v54c-19 -11 -44 -17 -75 -24c-57 -12 -77 -27 -77 -59c0 -35 25 -50 60 -50z" />
    <glyph glyph-name="guillemotleft" unicode="&#xab;" horiz-adv-x="440" 
d="M198 42l-154 132v156l154 131v-142l-81 -68v-2l81 -67v-140zM389 42l-151 132v156l151 131v-142l-79 -68v-2l79 -67v-140z" />
    <glyph glyph-name="logicalnot" unicode="&#xac;" horiz-adv-x="524" 
d="M330 134v165h-290v131h429v-296h-139z" />
    <glyph glyph-name="uni00AD" unicode="&#xad;" horiz-adv-x="335" 
d="M32 181v140h272v-140h-272z" />
    <glyph glyph-name="registered" unicode="&#xae;" horiz-adv-x="531" 
d="M160 360v256h126c52 0 97 -25 97 -76c0 -31 -14 -51 -43 -61v-2c23 -7 32 -21 37 -44c5 -31 1 -62 12 -67v-6h-74c-7 4 -7 35 -11 59c-3 21 -15 31 -37 31h-31v-90h-76zM236 503h38c23 0 34 9 34 27s-11 27 -34 27h-38v-54zM266 283c111 0 193 87 193 203
c0 115 -82 202 -193 202c-112 0 -194 -87 -194 -202c0 -116 82 -203 194 -203zM266 244c-134 0 -240 103 -240 242s106 242 240 242c133 0 239 -103 239 -242s-106 -242 -239 -242z" />
    <glyph glyph-name="macron" unicode="&#xaf;" horiz-adv-x="500" 
d="M110 587v101h286v-101h-286z" />
    <glyph glyph-name="degree" unicode="&#xb0;" horiz-adv-x="375" 
d="M188 478c43 0 68 32 68 71s-25 73 -68 73s-68 -34 -68 -73s25 -71 68 -71zM188 400c-85 0 -156 65 -156 149s71 151 156 151c84 0 156 -67 156 -151s-72 -149 -156 -149z" />
    <glyph glyph-name="plusminus" unicode="&#xb1;" 
d="M215 168v141h-175v130h175v140h136v-140h175v-130h-175v-141h-136zM40 0v124h486v-124h-486z" />
    <glyph glyph-name="twosuperior" unicode="&#xb2;" horiz-adv-x="396" 
d="M363 318h-336c1 68 31 111 74 146c40 35 81 54 116 78c19 15 30 28 30 49c0 25 -14 42 -46 42c-35 0 -58 -25 -58 -69h-110c0 104 70 159 171 159s158 -58 158 -126c0 -52 -22 -81 -54 -108c-39 -34 -96 -53 -119 -79v-1h174v-91z" />
    <glyph glyph-name="threesuperior" unicode="&#xb3;" horiz-adv-x="390" 
d="M201 309c-121 0 -179 59 -180 144h113c3 -35 18 -60 62 -60c36 0 54 19 54 46c0 33 -23 46 -63 46h-23v76h20c39 0 58 14 58 41c0 23 -15 39 -46 39c-37 0 -50 -23 -53 -50h-110c3 76 63 132 168 132c92 0 156 -42 156 -114c0 -39 -25 -62 -58 -77v-1
c40 -15 70 -45 70 -97c0 -87 -75 -125 -168 -125z" />
    <glyph glyph-name="acute" unicode="&#xb4;" horiz-adv-x="500" 
d="M171 572l57 148h188l-121 -148h-124z" />
    <glyph glyph-name="mu" unicode="&#xb5;" horiz-adv-x="570" 
d="M39 -169v681h162v-303c0 -58 26 -87 77 -87c56 0 90 40 90 103v287h163v-512h-156v63h-3c-31 -51 -71 -76 -121 -76c-24 0 -39 7 -50 15h-2v-171h-160z" />
    <glyph glyph-name="paragraph" unicode="&#xb6;" horiz-adv-x="603" 
d="M278 0v335h-62c-115 0 -189 77 -189 187c0 59 19 107 57 143c36 33 84 50 152 50h313v-715h-103v619h-64v-619h-104z" />
    <glyph glyph-name="periodcentered" unicode="&#xb7;" horiz-adv-x="235" 
d="M32 234v168h171v-168h-171z" />
    <glyph glyph-name="cedilla" unicode="&#xb8;" horiz-adv-x="500" 
d="M227 -193c-47 0 -84 12 -112 29l20 35c19 -9 45 -15 69 -15c28 0 54 8 54 29c0 19 -17 27 -38 27c-13 0 -24 -3 -35 -7l-17 24l71 71h63l-56 -47v-2c57 7 106 -15 106 -67c0 -48 -53 -77 -125 -77z" />
    <glyph glyph-name="onesuperior" unicode="&#xb9;" horiz-adv-x="272" 
d="M111 318v234h-91v81c63 3 105 30 116 86h96v-401h-121z" />
    <glyph glyph-name="ordmasculine" unicode="&#xba;" horiz-adv-x="521" 
d="M260 326c61 0 93 55 93 135s-32 135 -93 135s-92 -55 -92 -135s31 -135 92 -135zM261 223c-147 0 -243 102 -243 238s96 238 243 238c146 0 242 -102 242 -238s-96 -238 -242 -238z" />
    <glyph glyph-name="guillemotright" unicode="&#xbb;" horiz-adv-x="440" 
d="M51 42v142l79 68v2l-79 67v140l151 -132v-156zM242 42v142l81 68v2l-81 67v140l154 -132v-156z" />
    <glyph glyph-name="onequarter" unicode="&#xbc;" horiz-adv-x="816" 
d="M615 402h117v-236h58v-83h-58v-83h-117v83h-191v95zM615 288h-1l-103 -121v-1h104v122zM114 318v234h-91v81c63 3 105 30 116 86h96v-401h-121zM76 0l544 715h102l-545 -715h-101z" />
    <glyph glyph-name="onehalf" unicode="&#xbd;" horiz-adv-x="851" 
d="M815 0h-336c1 68 31 111 74 146c39 33 80 52 113 76c21 15 33 28 33 51c0 25 -14 42 -46 42c-35 0 -58 -25 -58 -69h-110c0 104 70 159 171 159s158 -58 158 -126c0 -52 -22 -81 -54 -108c-39 -34 -96 -53 -119 -79v-1h174v-91zM114 318v234h-91v81c63 3 105 30 116 86
h96v-401h-121zM70 0l544 715h102l-545 -715h-101z" />
    <glyph glyph-name="threequarters" unicode="&#xbe;" horiz-adv-x="883" 
d="M204 309c-121 0 -179 59 -180 144h113c3 -35 18 -60 62 -60c36 0 54 19 54 46c0 33 -23 46 -63 46h-23v76h20c39 0 58 14 58 41c0 23 -15 39 -46 39c-37 0 -50 -23 -53 -50h-110c3 76 63 132 168 132c92 0 156 -42 156 -114c0 -39 -25 -62 -58 -77v-1
c40 -15 70 -45 70 -97c0 -87 -75 -125 -168 -125zM683 402h117v-236h58v-83h-58v-83h-117v83h-191v95zM683 288h-1l-103 -121v-1h104v122zM153 0l544 715h102l-545 -715h-101z" />
    <glyph glyph-name="questiondown" unicode="&#xbf;" horiz-adv-x="547" 
d="M267 -140c-149 0 -250 83 -250 205c0 93 49 132 95 162c41 27 67 40 83 59c15 19 19 36 19 69h145c0 -102 -21 -128 -69 -168c-45 -40 -101 -56 -101 -117c0 -47 37 -75 85 -75c60 0 100 39 101 104h160c-3 -141 -102 -239 -268 -239zM204 420v168h170v-168h-170z" />
    <glyph glyph-name="Agrave" unicode="&#xc0;" horiz-adv-x="697" 
d="M-1 0l257 715h182l258 -715h-186l-42 129h-250l-41 -129h-178zM259 256h168l-54 173c-7 19 -14 43 -19 64c-3 12 -6 24 -9 37h-2c-3 -13 -7 -25 -10 -37c-7 -21 -12 -45 -19 -64zM295 750l-106 130h187l43 -130h-124z" />
    <glyph glyph-name="Aacute" unicode="&#xc1;" horiz-adv-x="697" 
d="M-1 0l257 715h182l258 -715h-186l-42 129h-250l-41 -129h-178zM259 256h168l-54 173c-7 19 -14 43 -19 64c-3 12 -6 24 -9 37h-2c-3 -13 -7 -25 -10 -37c-7 -21 -12 -45 -19 -64zM281 750l43 130h187l-106 -130h-124z" />
    <glyph glyph-name="Acircumflex" unicode="&#xc2;" horiz-adv-x="697" 
d="M-1 0l257 715h182l258 -715h-186l-42 129h-250l-41 -129h-178zM259 256h168l-54 173c-7 19 -14 43 -19 64c-3 12 -6 24 -9 37h-2c-3 -13 -7 -25 -10 -37c-7 -21 -12 -45 -19 -64zM162 750l107 125h156l107 -125h-137l-45 54h-2l-46 -54h-140z" />
    <glyph glyph-name="Atilde" unicode="&#xc3;" horiz-adv-x="697" 
d="M-1 0l257 715h182l258 -715h-186l-42 129h-250l-41 -129h-178zM259 256h168l-54 173c-7 19 -14 43 -19 64c-3 12 -6 24 -9 37h-2c-3 -13 -7 -25 -10 -37c-7 -21 -12 -45 -19 -64zM264 751h-84c0 91 46 135 103 135c25 0 47 -8 66 -19c23 -11 34 -18 49 -18
c21 0 27 14 30 35h84c0 -79 -35 -132 -100 -132c-27 0 -47 8 -66 16c-24 11 -36 19 -52 19c-17 0 -27 -12 -30 -36z" />
    <glyph glyph-name="Adieresis" unicode="&#xc4;" horiz-adv-x="697" 
d="M-1 0l257 715h182l258 -715h-186l-42 129h-250l-41 -129h-178zM259 256h168l-54 173c-7 19 -14 43 -19 64c-3 12 -6 24 -9 37h-2c-3 -13 -7 -25 -10 -37c-7 -21 -12 -45 -19 -64zM163 753v128h153v-128h-153zM378 753v128h153v-128h-153z" />
    <glyph glyph-name="Aring" unicode="&#xc5;" horiz-adv-x="697" 
d="M-1 0l257 715h182l258 -715h-186l-42 129h-250l-41 -129h-178zM259 256h168l-54 173c-7 19 -14 43 -19 64c-3 12 -6 24 -9 37h-2c-3 -13 -7 -25 -10 -37c-7 -21 -12 -45 -19 -64zM347 794c25 0 42 20 42 43s-17 43 -42 43c-24 0 -41 -20 -41 -43s17 -43 41 -43zM347 739
c-56 0 -102 42 -102 98c0 55 46 98 102 98s102 -43 102 -98c0 -56 -46 -98 -102 -98z" />
    <glyph glyph-name="AE" unicode="&#xc6;" horiz-adv-x="995" 
d="M-1 0l242 715h714v-147h-345v-129h293v-137h-293v-147h356v-155h-535v126h-216l-41 -126h-175zM255 249h176v319h-73z" />
    <glyph glyph-name="Ccedilla" unicode="&#xc7;" horiz-adv-x="702" 
d="M340 -193c-47 0 -84 12 -112 29l20 35c19 -9 45 -15 69 -15c28 0 54 8 54 29c0 19 -17 27 -38 27c-13 0 -24 -3 -35 -7l-17 24l56 57c-189 16 -317 166 -317 369c0 213 139 374 352 374c84 0 153 -24 204 -63c63 -47 98 -117 107 -197h-177c-9 64 -59 113 -135 113
c-116 0 -171 -96 -171 -227s66 -226 172 -226c80 0 131 50 139 119h177c-5 -72 -37 -136 -86 -183c-51 -49 -117 -76 -206 -80l-37 -32v-2c57 7 106 -15 106 -67c0 -48 -53 -77 -125 -77z" />
    <glyph glyph-name="Egrave" unicode="&#xc8;" horiz-adv-x="628" 
d="M277 750l-106 130h187l43 -130h-124zM49 0v715h542v-146h-365v-128h313v-138h-313v-153h371v-150h-548z" />
    <glyph glyph-name="Eacute" unicode="&#xc9;" horiz-adv-x="628" 
d="M263 750l43 130h187l-106 -130h-124zM49 0v715h542v-146h-365v-128h313v-138h-313v-153h371v-150h-548z" />
    <glyph glyph-name="Ecircumflex" unicode="&#xca;" horiz-adv-x="628" 
d="M49 0v715h542v-146h-365v-128h313v-138h-313v-153h371v-150h-548zM144 750l107 125h156l107 -125h-137l-45 54h-2l-46 -54h-140z" />
    <glyph glyph-name="Edieresis" unicode="&#xcb;" horiz-adv-x="628" 
d="M145 753v128h153v-128h-153zM360 753v128h153v-128h-153zM49 0v715h542v-146h-365v-128h313v-138h-313v-153h371v-150h-548z" />
    <glyph glyph-name="Igrave" unicode="&#xcc;" horiz-adv-x="276" 
d="M50 0v715h177v-715h-177zM86 750l-106 130h187l43 -130h-124z" />
    <glyph glyph-name="Iacute" unicode="&#xcd;" horiz-adv-x="276" 
d="M50 0v715h177v-715h-177zM72 750l43 130h187l-106 -130h-124z" />
    <glyph glyph-name="Icircumflex" unicode="&#xce;" horiz-adv-x="276" 
d="M50 0v715h177v-715h-177zM-47 750l107 125h156l107 -125h-137l-45 54h-2l-46 -54h-140z" />
    <glyph glyph-name="Idieresis" unicode="&#xcf;" horiz-adv-x="276" 
d="M50 0v715h177v-715h-177zM-46 753v128h153v-128h-153zM169 753v128h153v-128h-153z" />
    <glyph glyph-name="Eth" unicode="&#xd0;" horiz-adv-x="714" 
d="M235 149h104c117 0 176 72 176 204c0 131 -62 214 -174 214h-106v-134h156v-137h-156v-147zM58 0v296h-55v137h55v282h305c197 0 331 -143 331 -362c0 -116 -36 -209 -105 -272c-57 -52 -136 -81 -237 -81h-294z" />
    <glyph glyph-name="Ntilde" unicode="&#xd1;" horiz-adv-x="710" 
d="M273 751h-84c0 91 46 135 103 135c25 0 47 -8 66 -19c23 -11 34 -18 49 -18c21 0 27 14 30 35h84c0 -79 -35 -132 -100 -132c-27 0 -47 8 -66 16c-24 11 -36 19 -52 19c-17 0 -27 -12 -30 -36zM49 0v715h178l212 -359c5 -11 18 -33 29 -53c7 -12 13 -25 20 -38h2
c-1 16 -1 31 -1 46c-1 25 -1 52 -1 65v339h173v-715h-178l-210 354c-7 9 -19 32 -30 55c-7 13 -14 26 -21 41h-2c0 -17 0 -34 1 -49c0 -27 1 -56 1 -68v-333h-173z" />
    <glyph glyph-name="Ograve" unicode="&#xd2;" horiz-adv-x="747" 
d="M321 750l-106 130h187l43 -130h-124zM374 127c116 0 173 98 173 229s-57 230 -173 230c-115 0 -174 -99 -174 -230s59 -229 174 -229zM373 -17c-216 0 -353 159 -353 373s137 373 353 373s354 -159 354 -373s-138 -373 -354 -373z" />
    <glyph glyph-name="Oacute" unicode="&#xd3;" horiz-adv-x="747" 
d="M307 750l43 130h187l-106 -130h-124zM374 127c116 0 173 98 173 229s-57 230 -173 230c-115 0 -174 -99 -174 -230s59 -229 174 -229zM373 -17c-216 0 -353 159 -353 373s137 373 353 373s354 -159 354 -373s-138 -373 -354 -373z" />
    <glyph glyph-name="Ocircumflex" unicode="&#xd4;" horiz-adv-x="747" 
d="M374 127c116 0 173 98 173 229s-57 230 -173 230c-115 0 -174 -99 -174 -230s59 -229 174 -229zM373 -17c-216 0 -353 159 -353 373s137 373 353 373s354 -159 354 -373s-138 -373 -354 -373zM188 750l107 125h156l107 -125h-137l-45 54h-2l-46 -54h-140z" />
    <glyph glyph-name="Otilde" unicode="&#xd5;" horiz-adv-x="747" 
d="M296 751h-84c0 91 46 135 103 135c25 0 47 -8 66 -19c23 -11 34 -18 49 -18c21 0 27 14 30 35h84c0 -79 -35 -132 -100 -132c-27 0 -47 8 -66 16c-24 11 -36 19 -52 19c-17 0 -27 -12 -30 -36zM373 -17c-216 0 -353 159 -353 373s137 373 353 373s354 -159 354 -373
s-138 -373 -354 -373zM374 127c116 0 173 98 173 229s-57 230 -173 230c-115 0 -174 -99 -174 -230s59 -229 174 -229z" />
    <glyph glyph-name="Odieresis" unicode="&#xd6;" horiz-adv-x="747" 
d="M189 753v128h153v-128h-153zM404 753v128h153v-128h-153zM374 127c116 0 173 98 173 229s-57 230 -173 230c-115 0 -174 -99 -174 -230s59 -229 174 -229zM373 -17c-216 0 -353 159 -353 373s137 373 353 373s354 -159 354 -373s-138 -373 -354 -373z" />
    <glyph glyph-name="multiply" unicode="&#xd7;" 
d="M132 82l-93 89l152 155l-151 155l93 88l147 -151l149 151l92 -88l-151 -155l151 -154l-92 -89l-148 152z" />
    <glyph glyph-name="Oslash" unicode="&#xd8;" horiz-adv-x="747" 
d="M77 -35l-55 50l80 90c-53 65 -82 151 -82 251c0 214 137 373 353 373c88 0 163 -27 220 -72l76 85l56 -49l-79 -88c52 -65 81 -152 81 -249c0 -214 -138 -373 -354 -373c-88 0 -159 26 -218 70zM220 237l268 302c-28 29 -66 47 -114 47c-115 0 -174 -99 -174 -230
c0 -44 5 -84 20 -119zM374 127c116 0 173 98 173 229c0 43 -6 81 -19 116l-267 -300c29 -30 66 -45 113 -45z" />
    <glyph glyph-name="Ugrave" unicode="&#xd9;" horiz-adv-x="686" 
d="M290 750l-106 130h187l43 -130h-124zM344 -13c-201 0 -300 97 -300 265v463h177v-469c0 -71 35 -117 123 -117c83 0 121 49 121 120v466h177v-463c0 -165 -99 -265 -298 -265z" />
    <glyph glyph-name="Uacute" unicode="&#xda;" horiz-adv-x="686" 
d="M276 750l43 130h187l-106 -130h-124zM344 -13c-201 0 -300 97 -300 265v463h177v-469c0 -71 35 -117 123 -117c83 0 121 49 121 120v466h177v-463c0 -165 -99 -265 -298 -265z" />
    <glyph glyph-name="Ucircumflex" unicode="&#xdb;" horiz-adv-x="686" 
d="M344 -13c-201 0 -300 97 -300 265v463h177v-469c0 -71 35 -117 123 -117c83 0 121 49 121 120v466h177v-463c0 -165 -99 -265 -298 -265zM157 750l107 125h156l107 -125h-137l-45 54h-2l-46 -54h-140z" />
    <glyph glyph-name="Udieresis" unicode="&#xdc;" horiz-adv-x="686" 
d="M158 753v128h153v-128h-153zM373 753v128h153v-128h-153zM344 -13c-201 0 -300 97 -300 265v463h177v-469c0 -71 35 -117 123 -117c83 0 121 49 121 120v466h177v-463c0 -165 -99 -265 -298 -265z" />
    <glyph glyph-name="Yacute" unicode="&#xdd;" horiz-adv-x="663" 
d="M243 0v264l-242 451h193l92 -185c12 -25 23 -52 32 -73l15 -36h2l15 36c9 21 22 48 34 73l91 185h187l-242 -451v-264h-177zM267 750l43 130h187l-106 -130h-124z" />
    <glyph glyph-name="Thorn" unicode="&#xde;" horiz-adv-x="650" 
d="M49 0v715h180v-99h142c85 -1 150 -23 195 -67c47 -43 72 -103 72 -176c0 -136 -94 -234 -242 -234h-167v-139h-180zM229 279h131c64 0 100 38 100 95c0 59 -36 92 -100 92h-131v-187z" />
    <glyph glyph-name="germandbls" unicode="&#xdf;" horiz-adv-x="576" 
d="M331 -9c-30 0 -55 3 -76 10v118c92 -11 144 28 144 119c0 76 -36 117 -115 117h-27v93h21c57 3 93 28 93 81c0 45 -28 77 -79 77c-55 0 -90 -32 -90 -96v-510h-163v514c0 133 96 215 250 215c143 0 234 -74 234 -188c0 -62 -29 -105 -88 -129v-3c81 -27 125 -93 125 -185
c0 -155 -97 -233 -229 -233z" />
    <glyph glyph-name="agrave" unicode="&#xe0;" horiz-adv-x="541" 
d="M190 -13c-102 0 -175 55 -175 156c0 112 89 148 196 161c96 12 130 22 130 57c0 33 -21 55 -70 55c-52 0 -78 -23 -83 -66h-150c3 96 78 176 232 176c77 0 129 -14 166 -42c44 -32 65 -82 65 -146v-258c0 -41 3 -64 18 -73v-7h-158c-8 11 -13 30 -17 57h-2
c-31 -43 -75 -70 -152 -70zM242 91c61 0 103 36 103 92v61c-21 -11 -51 -19 -84 -27c-63 -15 -89 -30 -89 -69c0 -41 30 -57 70 -57zM223 572l-121 148h188l57 -148h-124z" />
    <glyph glyph-name="aacute" unicode="&#xe1;" horiz-adv-x="541" 
d="M190 -13c-102 0 -175 55 -175 156c0 112 89 148 196 161c96 12 130 22 130 57c0 33 -21 55 -70 55c-52 0 -78 -23 -83 -66h-150c3 96 78 176 232 176c77 0 129 -14 166 -42c44 -32 65 -82 65 -146v-258c0 -41 3 -64 18 -73v-7h-158c-8 11 -13 30 -17 57h-2
c-31 -43 -75 -70 -152 -70zM242 91c61 0 103 36 103 92v61c-21 -11 -51 -19 -84 -27c-63 -15 -89 -30 -89 -69c0 -41 30 -57 70 -57zM209 572l57 148h188l-121 -148h-124z" />
    <glyph glyph-name="acircumflex" unicode="&#xe2;" horiz-adv-x="541" 
d="M190 -13c-102 0 -175 55 -175 156c0 112 89 148 196 161c96 12 130 22 130 57c0 33 -21 55 -70 55c-52 0 -78 -23 -83 -66h-150c3 96 78 176 232 176c77 0 129 -14 166 -42c44 -32 65 -82 65 -146v-258c0 -41 3 -64 18 -73v-7h-158c-8 11 -13 30 -17 57h-2
c-31 -43 -75 -70 -152 -70zM242 91c61 0 103 36 103 92v61c-21 -11 -51 -19 -84 -27c-63 -15 -89 -30 -89 -69c0 -41 30 -57 70 -57zM90 574l107 137h156l107 -137h-137l-45 66h-2l-46 -66h-140z" />
    <glyph glyph-name="atilde" unicode="&#xe3;" horiz-adv-x="541" 
d="M190 -13c-102 0 -175 55 -175 156c0 112 89 148 196 161c96 12 130 22 130 57c0 33 -21 55 -70 55c-52 0 -78 -23 -83 -66h-150c3 96 78 176 232 176c77 0 129 -14 166 -42c44 -32 65 -82 65 -146v-258c0 -41 3 -64 18 -73v-7h-158c-8 11 -13 30 -17 57h-2
c-31 -43 -75 -70 -152 -70zM242 91c61 0 103 36 103 92v61c-21 -11 -51 -19 -84 -27c-63 -15 -89 -30 -89 -69c0 -41 30 -57 70 -57zM193 571h-84c0 91 46 135 103 135c25 0 47 -8 66 -19c23 -11 34 -18 49 -18c21 0 27 14 30 35h84c0 -79 -35 -132 -100 -132
c-27 0 -47 8 -66 16c-24 11 -36 19 -52 19c-17 0 -27 -12 -30 -36z" />
    <glyph glyph-name="adieresis" unicode="&#xe4;" horiz-adv-x="541" 
d="M190 -13c-102 0 -175 55 -175 156c0 112 89 148 196 161c96 12 130 22 130 57c0 33 -21 55 -70 55c-52 0 -78 -23 -83 -66h-150c3 96 78 176 232 176c77 0 129 -14 166 -42c44 -32 65 -82 65 -146v-258c0 -41 3 -64 18 -73v-7h-158c-8 11 -13 30 -17 57h-2
c-31 -43 -75 -70 -152 -70zM242 91c61 0 103 36 103 92v61c-21 -11 -51 -19 -84 -27c-63 -15 -89 -30 -89 -69c0 -41 30 -57 70 -57zM86 577v128h153v-128h-153zM311 577v128h153v-128h-153z" />
    <glyph glyph-name="aring" unicode="&#xe5;" horiz-adv-x="541" 
d="M190 -13c-102 0 -175 55 -175 156c0 112 89 148 196 161c96 12 130 22 130 57c0 33 -21 55 -70 55c-52 0 -78 -23 -83 -66h-150c3 96 78 176 232 176c77 0 129 -14 166 -42c44 -32 65 -82 65 -146v-258c0 -41 3 -64 18 -73v-7h-158c-8 11 -13 30 -17 57h-2
c-31 -43 -75 -70 -152 -70zM242 91c61 0 103 36 103 92v61c-21 -11 -51 -19 -84 -27c-63 -15 -89 -30 -89 -69c0 -41 30 -57 70 -57zM275 614c25 0 42 19 42 42s-17 43 -42 43c-24 0 -41 -20 -41 -43s17 -42 41 -42zM275 558c-56 0 -102 43 -102 98c0 56 46 99 102 99
s102 -43 102 -99c0 -55 -46 -98 -102 -98z" />
    <glyph glyph-name="ae" unicode="&#xe6;" horiz-adv-x="885" 
d="M210 -14c-117 0 -195 56 -195 157c0 113 89 145 197 161c99 13 133 21 133 57c0 33 -21 55 -72 55c-53 0 -81 -22 -85 -66h-150c3 96 79 176 234 176c72 0 132 -11 171 -54c41 35 95 55 160 55c69 0 124 -20 167 -56c67 -56 99 -148 98 -257h-368
c11 -69 48 -112 116 -112c43 0 70 19 85 51h158c-11 -44 -38 -86 -81 -117c-43 -33 -97 -51 -165 -51c-87 0 -153 31 -197 82c-52 -55 -106 -81 -206 -81zM242 91c64 0 107 36 107 92v61c-21 -11 -52 -19 -87 -27c-67 -15 -92 -30 -92 -69c0 -41 32 -57 72 -57zM606 411
c-63 0 -94 -39 -105 -100h202c-7 61 -42 100 -97 100z" />
    <glyph glyph-name="ccedilla" unicode="&#xe7;" horiz-adv-x="544" 
d="M257 -193c-47 0 -84 12 -112 29l20 35c19 -9 45 -15 69 -15c28 0 54 8 54 29c0 19 -17 27 -38 27c-13 0 -24 -3 -35 -7l-17 24l57 57c-146 13 -239 125 -239 269c0 155 105 271 268 271c140 0 227 -81 243 -196h-157c-11 47 -37 76 -84 76c-71 0 -105 -58 -105 -151
c0 -92 34 -149 105 -149c52 0 82 29 89 88h156c-5 -111 -85 -198 -217 -209l-38 -32v-2c57 7 106 -15 106 -67c0 -48 -53 -77 -125 -77z" />
    <glyph glyph-name="egrave" unicode="&#xe8;" horiz-adv-x="560" 
d="M289 -15c-169 0 -273 116 -273 272c0 153 107 270 263 270c73 0 131 -24 175 -64c61 -56 91 -145 90 -249h-368c11 -69 47 -112 115 -112c43 0 70 19 85 51h159c-11 -47 -41 -90 -86 -121c-43 -31 -95 -47 -160 -47zM177 311h202c-7 61 -44 100 -97 100
c-63 0 -94 -39 -105 -100zM228 572l-121 148h188l57 -148h-124z" />
    <glyph glyph-name="eacute" unicode="&#xe9;" horiz-adv-x="560" 
d="M214 572l57 148h188l-121 -148h-124zM289 -15c-169 0 -273 116 -273 272c0 153 107 270 263 270c73 0 131 -24 175 -64c61 -56 91 -145 90 -249h-368c11 -69 47 -112 115 -112c43 0 70 19 85 51h159c-11 -47 -41 -90 -86 -121c-43 -31 -95 -47 -160 -47zM177 311h202
c-7 61 -44 100 -97 100c-63 0 -94 -39 -105 -100z" />
    <glyph glyph-name="ecircumflex" unicode="&#xea;" horiz-adv-x="560" 
d="M95 574l107 137h156l107 -137h-137l-45 66h-2l-46 -66h-140zM289 -15c-169 0 -273 116 -273 272c0 153 107 270 263 270c73 0 131 -24 175 -64c61 -56 91 -145 90 -249h-368c11 -69 47 -112 115 -112c43 0 70 19 85 51h159c-11 -47 -41 -90 -86 -121
c-43 -31 -95 -47 -160 -47zM177 311h202c-7 61 -44 100 -97 100c-63 0 -94 -39 -105 -100z" />
    <glyph glyph-name="edieresis" unicode="&#xeb;" horiz-adv-x="560" 
d="M91 577v128h153v-128h-153zM316 577v128h153v-128h-153zM289 -15c-169 0 -273 116 -273 272c0 153 107 270 263 270c73 0 131 -24 175 -64c61 -56 91 -145 90 -249h-368c11 -69 47 -112 115 -112c43 0 70 19 85 51h159c-11 -47 -41 -90 -86 -121
c-43 -31 -95 -47 -160 -47zM177 311h202c-7 61 -44 100 -97 100c-63 0 -94 -39 -105 -100z" />
    <glyph glyph-name="igrave" unicode="&#xec;" horiz-adv-x="241" 
d="M39 0v512h163v-512h-163zM69 572l-121 148h188l57 -148h-124z" />
    <glyph glyph-name="iacute" unicode="&#xed;" horiz-adv-x="241" 
d="M55 572l57 148h188l-121 -148h-124zM39 0v512h163v-512h-163z" />
    <glyph glyph-name="icircumflex" unicode="&#xee;" horiz-adv-x="241" 
d="M39 0v512h163v-512h-163zM-42 574l81 137h164l79 -137h-129l-30 62h-2l-31 -62h-132z" />
    <glyph glyph-name="idieresis" unicode="&#xef;" horiz-adv-x="241" 
d="M-29 577v128h124v-128h-124zM147 577v128h123v-128h-123zM39 512h163v-512h-163v512z" />
    <glyph glyph-name="eth" unicode="&#xf0;" horiz-adv-x="579" 
d="M143 535l-23 53l109 36c-40 35 -80 64 -119 91h204c20 -13 40 -27 60 -43l98 32l24 -53l-74 -24c77 -80 138 -194 138 -350c0 -152 -74 -293 -270 -293c-167 0 -274 116 -274 271s93 261 236 261c45 0 77 -15 105 -42h2c-23 37 -50 72 -82 105zM289 100
c72 0 109 61 109 154s-37 153 -109 153s-108 -60 -108 -153s36 -154 108 -154z" />
    <glyph glyph-name="ntilde" unicode="&#xf1;" horiz-adv-x="570" 
d="M39 0v512h157v-70h3c39 56 86 85 158 85c112 0 178 -80 178 -194v-333h-163v300c0 55 -27 91 -80 91c-55 0 -90 -44 -90 -108v-283h-163zM208 571h-84c0 91 46 135 103 135c25 0 47 -8 66 -19c23 -11 34 -18 49 -18c21 0 27 14 30 35h84c0 -79 -35 -132 -100 -132
c-27 0 -47 8 -66 16c-24 11 -36 19 -52 19c-17 0 -27 -12 -30 -36z" />
    <glyph glyph-name="ograve" unicode="&#xf2;" horiz-adv-x="579" 
d="M289 100c72 0 109 62 109 155s-37 156 -109 156s-108 -63 -108 -156s36 -155 108 -155zM290 -16c-165 0 -274 116 -274 271s109 271 274 271s273 -116 273 -271s-108 -271 -273 -271zM238 572l-121 148h188l57 -148h-124z" />
    <glyph glyph-name="oacute" unicode="&#xf3;" horiz-adv-x="579" 
d="M224 572l57 148h188l-121 -148h-124zM289 100c72 0 109 62 109 155s-37 156 -109 156s-108 -63 -108 -156s36 -155 108 -155zM290 -16c-165 0 -274 116 -274 271s109 271 274 271s273 -116 273 -271s-108 -271 -273 -271z" />
    <glyph glyph-name="ocircumflex" unicode="&#xf4;" horiz-adv-x="579" 
d="M105 574l107 137h156l107 -137h-137l-45 66h-2l-46 -66h-140zM289 100c72 0 109 62 109 155s-37 156 -109 156s-108 -63 -108 -156s36 -155 108 -155zM290 -16c-165 0 -274 116 -274 271s109 271 274 271s273 -116 273 -271s-108 -271 -273 -271z" />
    <glyph glyph-name="otilde" unicode="&#xf5;" horiz-adv-x="579" 
d="M289 100c72 0 109 62 109 155s-37 156 -109 156s-108 -63 -108 -156s36 -155 108 -155zM290 -16c-165 0 -274 116 -274 271s109 271 274 271s273 -116 273 -271s-108 -271 -273 -271zM208 571h-84c0 91 46 135 103 135c25 0 47 -8 66 -19c23 -11 34 -18 49 -18
c21 0 27 14 30 35h84c0 -79 -35 -132 -100 -132c-27 0 -47 8 -66 16c-24 11 -36 19 -52 19c-17 0 -27 -12 -30 -36z" />
    <glyph glyph-name="odieresis" unicode="&#xf6;" horiz-adv-x="579" 
d="M101 577v128h153v-128h-153zM326 577v128h153v-128h-153zM289 100c72 0 109 62 109 155s-37 156 -109 156s-108 -63 -108 -156s36 -155 108 -155zM290 -16c-165 0 -274 116 -274 271s109 271 274 271s273 -116 273 -271s-108 -271 -273 -271z" />
    <glyph glyph-name="divide" unicode="&#xf7;" 
d="M197 59v149h171v-149h-171zM197 451v149h171v-149h-171zM526 264h-486v131h486v-131z" />
    <glyph glyph-name="oslash" unicode="&#xf8;" horiz-adv-x="579" 
d="M71 -36l-44 43l57 63c-45 49 -68 111 -68 185c0 155 109 271 274 271c64 0 117 -18 161 -47l58 64l44 -42l-56 -62c43 -48 66 -112 66 -184c0 -155 -108 -271 -273 -271c-63 0 -116 17 -160 46zM289 100c72 0 109 62 109 155c0 23 -3 44 -8 64l-171 -190
c17 -19 41 -29 70 -29zM190 189l172 190c-19 21 -44 32 -73 32c-72 0 -108 -63 -108 -156c0 -25 3 -47 9 -66z" />
    <glyph glyph-name="ugrave" unicode="&#xf9;" 
d="M215 -15c-119 0 -180 76 -180 191v336h162v-302c0 -56 25 -87 77 -87c56 0 90 42 90 103v286h163v-512h-156v63h-3c-37 -51 -81 -78 -153 -78zM230 572l-121 148h188l57 -148h-124z" />
    <glyph glyph-name="uacute" unicode="&#xfa;" 
d="M216 572l57 148h188l-121 -148h-124zM215 -15c-119 0 -180 76 -180 191v336h162v-302c0 -56 25 -87 77 -87c56 0 90 42 90 103v286h163v-512h-156v63h-3c-37 -51 -81 -78 -153 -78z" />
    <glyph glyph-name="ucircumflex" unicode="&#xfb;" 
d="M97 574l107 137h156l107 -137h-137l-45 66h-2l-46 -66h-140zM215 -15c-119 0 -180 76 -180 191v336h162v-302c0 -56 25 -87 77 -87c56 0 90 42 90 103v286h163v-512h-156v63h-3c-37 -51 -81 -78 -153 -78z" />
    <glyph glyph-name="udieresis" unicode="&#xfc;" 
d="M93 577v128h153v-128h-153zM318 577v128h153v-128h-153zM215 -15c-119 0 -180 76 -180 191v336h162v-302c0 -56 25 -87 77 -87c56 0 90 42 90 103v286h163v-512h-156v63h-3c-37 -51 -81 -78 -153 -78z" />
    <glyph glyph-name="yacute" unicode="&#xfd;" horiz-adv-x="529" 
d="M56 -169v127h56c48 0 67 19 67 54c0 23 -10 51 -31 106l-151 394h172l69 -218c8 -25 15 -55 22 -78c3 -13 7 -27 10 -40h2c3 13 6 27 9 40c5 23 13 53 21 78l67 218h163l-177 -519c-40 -120 -91 -162 -193 -162h-106zM201 572l57 148h188l-121 -148h-124z" />
    <glyph glyph-name="thorn" unicode="&#xfe;" horiz-adv-x="588" 
d="M39 -169v885h163v-262h3c32 44 77 73 148 73c136 0 219 -116 219 -271c0 -166 -90 -272 -223 -272c-67 0 -113 25 -145 69h-2v-222h-163zM307 110c63 0 100 53 100 142c0 88 -32 148 -103 148c-72 0 -107 -65 -107 -148c0 -84 39 -142 110 -142z" />
    <glyph glyph-name="ydieresis" unicode="&#xff;" horiz-adv-x="529" 
d="M56 -169v127h56c48 0 67 19 67 54c0 23 -10 51 -31 106l-151 394h172l69 -218c8 -25 15 -55 22 -78c3 -13 7 -27 10 -40h2c3 13 6 27 9 40c5 23 13 53 21 78l67 218h163l-177 -519c-40 -120 -91 -162 -193 -162h-106zM78 577v128h153v-128h-153zM303 577v128h153v-128
h-153z" />
    <glyph glyph-name="Amacron" unicode="&#x100;" horiz-adv-x="697" 
d="M-1 0l257 715h182l258 -715h-186l-42 129h-250l-41 -129h-178zM259 256h168l-54 173c-7 19 -14 43 -19 64c-3 12 -6 24 -9 37h-2c-3 -13 -7 -25 -10 -37c-7 -21 -12 -45 -19 -64zM204 762v101h286v-101h-286z" />
    <glyph glyph-name="amacron" unicode="&#x101;" horiz-adv-x="541" 
d="M190 -13c-102 0 -175 55 -175 156c0 112 89 148 196 161c96 12 130 22 130 57c0 33 -21 55 -70 55c-52 0 -78 -23 -83 -66h-150c3 96 78 176 232 176c77 0 129 -14 166 -42c44 -32 65 -82 65 -146v-258c0 -41 3 -64 18 -73v-7h-158c-8 11 -13 30 -17 57h-2
c-31 -43 -75 -70 -152 -70zM242 91c61 0 103 36 103 92v61c-21 -11 -51 -19 -84 -27c-63 -15 -89 -30 -89 -69c0 -41 30 -57 70 -57zM132 587v101h286v-101h-286z" />
    <glyph glyph-name="Abreve" unicode="&#x102;" horiz-adv-x="697" 
d="M-1 0l257 715h182l258 -715h-186l-42 129h-250l-41 -129h-178zM259 256h168l-54 173c-7 19 -14 43 -19 64c-3 12 -6 24 -9 37h-2c-3 -13 -7 -25 -10 -37c-7 -21 -12 -45 -19 -64zM349 744c-91 0 -160 57 -163 145h92c3 -28 27 -47 70 -47c40 0 66 22 69 47h92
c-4 -85 -67 -145 -160 -145z" />
    <glyph glyph-name="abreve" unicode="&#x103;" horiz-adv-x="541" 
d="M190 -13c-102 0 -175 55 -175 156c0 112 89 148 196 161c96 12 130 22 130 57c0 33 -21 55 -70 55c-52 0 -78 -23 -83 -66h-150c3 96 78 176 232 176c77 0 129 -14 166 -42c44 -32 65 -82 65 -146v-258c0 -41 3 -64 18 -73v-7h-158c-8 11 -13 30 -17 57h-2
c-31 -43 -75 -70 -152 -70zM242 91c61 0 103 36 103 92v61c-21 -11 -51 -19 -84 -27c-63 -15 -89 -30 -89 -69c0 -41 30 -57 70 -57zM277 566c-91 0 -160 57 -163 145h92c3 -28 27 -47 70 -47c40 0 66 22 69 47h92c-4 -85 -67 -145 -160 -145z" />
    <glyph glyph-name="Aogonek" unicode="&#x104;" horiz-adv-x="697" 
d="M629 -177c-84 0 -120 30 -120 86c0 43 29 72 60 91h-59l-42 129h-250l-41 -129h-178l257 715h182l256 -709c-39 -25 -62 -48 -62 -69c0 -17 11 -25 32 -25c12 0 22 2 30 5h1v-85c-13 -5 -33 -9 -66 -9zM259 256h168l-54 173c-7 19 -14 43 -19 64c-3 12 -6 24 -9 37h-2
c-3 -13 -7 -25 -10 -37c-7 -21 -12 -45 -19 -64z" />
    <glyph glyph-name="aogonek" unicode="&#x105;" horiz-adv-x="541" 
d="M462 -177c-85 0 -124 29 -124 84c0 47 38 78 70 93h-47c-8 11 -13 30 -17 57h-2c-31 -43 -75 -70 -152 -70c-102 0 -175 55 -175 156c0 112 89 148 196 161c96 12 130 22 130 57c0 33 -21 55 -70 55c-52 0 -78 -23 -83 -66h-150c3 96 78 176 232 176
c77 0 129 -14 166 -42c44 -32 65 -82 65 -146v-258c0 -41 3 -64 18 -73v-7c-36 -19 -58 -42 -58 -63c0 -17 10 -25 31 -25c12 0 22 2 30 5h1v-85c-13 -5 -33 -9 -61 -9zM242 91c61 0 103 36 103 92v61c-21 -11 -51 -19 -84 -27c-63 -15 -89 -30 -89 -69c0 -41 30 -57 70 -57
z" />
    <glyph glyph-name="Cacute" unicode="&#x106;" horiz-adv-x="702" 
d="M373 -16c-211 0 -353 158 -353 371s139 374 352 374c84 0 153 -24 204 -63c63 -47 98 -117 107 -197h-177c-9 64 -59 113 -135 113c-116 0 -171 -96 -171 -227s66 -226 172 -226c80 0 131 50 139 119h177c-5 -72 -37 -136 -86 -183c-56 -53 -128 -81 -229 -81zM299 750
l43 130h187l-106 -130h-124z" />
    <glyph glyph-name="cacute" unicode="&#x107;" horiz-adv-x="544" 
d="M215 572l57 148h188l-121 -148h-124zM288 -16c-164 0 -272 116 -272 271s105 271 268 271c140 0 227 -81 243 -196h-157c-11 47 -37 76 -84 76c-71 0 -105 -58 -105 -151c0 -92 34 -149 105 -149c52 0 82 29 89 88h156c-5 -118 -97 -210 -243 -210z" />
    <glyph glyph-name="Ccircumflex" unicode="&#x108;" horiz-adv-x="702" 
d="M373 -16c-211 0 -353 158 -353 371s139 374 352 374c84 0 153 -24 204 -63c63 -47 98 -117 107 -197h-177c-9 64 -59 113 -135 113c-116 0 -171 -96 -171 -227s66 -226 172 -226c80 0 131 50 139 119h177c-5 -72 -37 -136 -86 -183c-56 -53 -128 -81 -229 -81zM180 750
l107 125h156l107 -125h-137l-45 54h-2l-46 -54h-140z" />
    <glyph glyph-name="ccircumflex" unicode="&#x109;" horiz-adv-x="544" 
d="M96 574l107 137h156l107 -137h-137l-45 66h-2l-46 -66h-140zM288 -16c-164 0 -272 116 -272 271s105 271 268 271c140 0 227 -81 243 -196h-157c-11 47 -37 76 -84 76c-71 0 -105 -58 -105 -151c0 -92 34 -149 105 -149c52 0 82 29 89 88h156c-5 -118 -97 -210 -243 -210
z" />
    <glyph glyph-name="Cdotaccent" unicode="&#x10a;" horiz-adv-x="702" 
d="M284 753v130h162v-130h-162zM373 -16c-211 0 -353 158 -353 371s139 374 352 374c84 0 153 -24 204 -63c63 -47 98 -117 107 -197h-177c-9 64 -59 113 -135 113c-116 0 -171 -96 -171 -227s66 -226 172 -226c80 0 131 50 139 119h177c-5 -72 -37 -136 -86 -183
c-56 -53 -128 -81 -229 -81z" />
    <glyph glyph-name="cdotaccent" unicode="&#x10b;" horiz-adv-x="544" 
d="M288 -16c-164 0 -272 116 -272 271s105 271 268 271c140 0 227 -81 243 -196h-157c-11 47 -37 76 -84 76c-71 0 -105 -58 -105 -151c0 -92 34 -149 105 -149c52 0 82 29 89 88h156c-5 -118 -97 -210 -243 -210zM200 583v132h162v-132h-162z" />
    <glyph glyph-name="Ccaron" unicode="&#x10c;" horiz-adv-x="702" 
d="M373 -16c-211 0 -353 158 -353 371s139 374 352 374c84 0 153 -24 204 -63c63 -47 98 -117 107 -197h-177c-9 64 -59 113 -135 113c-116 0 -171 -96 -171 -227s66 -226 172 -226c80 0 131 50 139 119h177c-5 -72 -37 -136 -86 -183c-56 -53 -128 -81 -229 -81zM286 750
l-106 125h137l45 -54h2l45 54h140l-106 -125h-157z" />
    <glyph glyph-name="ccaron" unicode="&#x10d;" horiz-adv-x="544" 
d="M203 571l-106 138h137l45 -66h2l45 66h140l-106 -138h-157zM288 -16c-164 0 -272 116 -272 271s105 271 268 271c140 0 227 -81 243 -196h-157c-11 47 -37 76 -84 76c-71 0 -105 -58 -105 -151c0 -92 34 -149 105 -149c52 0 82 29 89 88h156c-5 -118 -97 -210 -243 -210z
" />
    <glyph glyph-name="Dcaron" unicode="&#x10e;" horiz-adv-x="705" 
d="M245 750l-106 125h137l45 -54h2l45 54h140l-106 -125h-157zM226 149h104c117 0 176 72 176 204c0 131 -62 214 -174 214h-106v-418zM49 0v715h305c197 0 331 -143 331 -362c0 -127 -44 -227 -124 -288c-56 -43 -127 -65 -218 -65h-294z" />
    <glyph glyph-name="dcaron" unicode="&#x10f;" horiz-adv-x="588" 
d="M583 524v47c35 5 58 16 58 43h-57v101h125v-79c0 -76 -54 -109 -126 -112zM240 -16c-131 0 -224 101 -224 272c0 160 92 271 224 271c72 0 112 -30 143 -73h3v261h163v-715h-156v69h-2c-31 -53 -83 -85 -151 -85zM282 113c68 0 108 59 108 143c0 86 -35 148 -106 148
c-65 0 -103 -59 -103 -146c0 -89 37 -145 101 -145z" />
    <glyph glyph-name="Dcroat" unicode="&#x110;" horiz-adv-x="714" 
d="M235 149h104c117 0 176 72 176 204c0 131 -62 214 -174 214h-106v-134h156v-137h-156v-147zM58 0v296h-55v137h55v282h305c197 0 331 -143 331 -362c0 -128 -43 -228 -126 -289c-56 -41 -127 -64 -216 -64h-294z" />
    <glyph glyph-name="dcroat" unicode="&#x111;" horiz-adv-x="588" 
d="M266 566v82h120v67h163v-67h51v-82h-51v-566h-156v69h-2c-31 -53 -83 -85 -151 -85c-131 0 -224 101 -224 272c0 160 92 271 224 271c72 0 112 -30 143 -73h3v112h-120zM282 113c68 0 108 59 108 143c0 86 -35 148 -106 148c-65 0 -103 -59 -103 -146
c0 -89 37 -145 101 -145z" />
    <glyph glyph-name="Emacron" unicode="&#x112;" horiz-adv-x="628" 
d="M186 762v101h286v-101h-286zM49 0v715h542v-146h-365v-128h313v-138h-313v-153h371v-150h-548z" />
    <glyph glyph-name="emacron" unicode="&#x113;" horiz-adv-x="560" 
d="M289 -15c-169 0 -273 116 -273 272c0 153 107 270 263 270c73 0 131 -24 175 -64c61 -56 91 -145 90 -249h-368c11 -69 47 -112 115 -112c43 0 70 19 85 51h159c-11 -47 -41 -90 -86 -121c-43 -31 -95 -47 -160 -47zM177 311h202c-7 61 -44 100 -97 100
c-63 0 -94 -39 -105 -100zM137 587v101h286v-101h-286z" />
    <glyph glyph-name="Ebreve" unicode="&#x114;" horiz-adv-x="628" 
d="M331 744c-91 0 -160 57 -163 145h92c3 -28 27 -47 70 -47c40 0 66 22 69 47h92c-4 -85 -67 -145 -160 -145zM49 0v715h542v-146h-365v-128h313v-138h-313v-153h371v-150h-548z" />
    <glyph glyph-name="ebreve" unicode="&#x115;" horiz-adv-x="560" 
d="M289 -15c-169 0 -273 116 -273 272c0 153 107 270 263 270c73 0 131 -24 175 -64c61 -56 91 -145 90 -249h-368c11 -69 47 -112 115 -112c43 0 70 19 85 51h159c-11 -47 -41 -90 -86 -121c-43 -31 -95 -47 -160 -47zM177 311h202c-7 61 -44 100 -97 100
c-63 0 -94 -39 -105 -100zM281 566c-91 0 -160 57 -163 145h92c3 -28 27 -47 70 -47c40 0 66 22 69 47h92c-4 -85 -67 -145 -160 -145z" />
    <glyph glyph-name="Edotaccent" unicode="&#x116;" horiz-adv-x="628" 
d="M248 753v130h162v-130h-162zM49 0v715h542v-146h-365v-128h313v-138h-313v-153h371v-150h-548z" />
    <glyph glyph-name="edotaccent" unicode="&#x117;" horiz-adv-x="560" 
d="M289 -15c-169 0 -273 116 -273 272c0 153 107 270 263 270c73 0 131 -24 175 -64c61 -56 91 -145 90 -249h-368c11 -69 47 -112 115 -112c43 0 70 19 85 51h159c-11 -47 -41 -90 -86 -121c-43 -31 -95 -47 -160 -47zM177 311h202c-7 61 -44 100 -97 100
c-63 0 -94 -39 -105 -100zM199 583v132h162v-132h-162z" />
    <glyph glyph-name="Eogonek" unicode="&#x118;" horiz-adv-x="628" 
d="M49 0v715h542v-146h-365v-128h313v-138h-313v-153h371v-150h-33c-35 -19 -57 -42 -57 -63c0 -17 11 -25 32 -25c12 0 22 2 30 5h1v-85c-13 -5 -33 -9 -65 -9c-85 0 -121 30 -121 86c0 43 29 72 60 91h-395z" />
    <glyph glyph-name="eogonek" unicode="&#x119;" horiz-adv-x="560" 
d="M367 -177c-85 0 -124 29 -124 84c0 35 20 61 44 78c-168 0 -271 118 -271 272c0 153 107 270 263 270c73 0 131 -24 175 -64c61 -56 91 -145 90 -249h-368c11 -69 47 -112 115 -112c43 0 70 19 85 51h159c-11 -47 -39 -84 -71 -112c-40 -35 -98 -69 -98 -104
c0 -17 10 -25 31 -25c12 0 22 2 30 5h1v-85c-13 -5 -33 -9 -61 -9zM177 311h202c-7 61 -44 100 -97 100c-63 0 -94 -39 -105 -100z" />
    <glyph glyph-name="Ecaron" unicode="&#x11a;" horiz-adv-x="628" 
d="M251 750l-106 125h137l45 -54h2l45 54h140l-106 -125h-157zM49 0v715h542v-146h-365v-128h313v-138h-313v-153h371v-150h-548z" />
    <glyph glyph-name="ecaron" unicode="&#x11b;" horiz-adv-x="560" 
d="M201 571l-106 138h137l45 -66h2l45 66h140l-106 -138h-157zM289 -15c-169 0 -273 116 -273 272c0 153 107 270 263 270c73 0 131 -24 175 -64c61 -56 91 -145 90 -249h-368c11 -69 47 -112 115 -112c43 0 70 19 85 51h159c-11 -47 -41 -90 -86 -121
c-43 -31 -95 -47 -160 -47zM177 311h202c-7 61 -44 100 -97 100c-63 0 -94 -39 -105 -100z" />
    <glyph glyph-name="Gcircumflex" unicode="&#x11c;" horiz-adv-x="737" 
d="M361 -16c-103 0 -184 36 -244 100c-63 68 -96 162 -96 271c0 113 38 211 106 279c60 60 141 95 245 95c185 0 293 -98 317 -248h-172c-13 59 -60 102 -139 102c-118 0 -177 -98 -177 -228c0 -132 68 -228 180 -228c93 0 147 61 155 125v2h-134v130h298v-384h-124l-10 86
h-2c-47 -73 -116 -102 -203 -102zM181 750l107 125h156l107 -125h-137l-45 54h-2l-46 -54h-140z" />
    <glyph glyph-name="gcircumflex" unicode="&#x11d;" horiz-adv-x="572" 
d="M98 574l107 137h156l107 -137h-137l-45 66h-2l-46 -66h-140zM277 -177c-141 0 -234 57 -250 165h158c9 -27 35 -50 90 -50c69 0 98 35 98 98v51h-4c-31 -35 -68 -59 -131 -59c-115 0 -222 86 -222 243c0 149 87 256 215 256c68 0 113 -27 144 -70h2v55h156v-462
c0 -77 -27 -133 -68 -170c-45 -40 -112 -57 -188 -57zM276 149c71 0 104 56 104 128c0 69 -36 127 -104 127c-61 0 -101 -49 -101 -128c0 -77 40 -127 101 -127z" />
    <glyph glyph-name="Gbreve" unicode="&#x11e;" horiz-adv-x="737" 
d="M368 744c-91 0 -160 57 -163 145h92c3 -28 27 -47 70 -47c40 0 66 22 69 47h92c-4 -85 -67 -145 -160 -145zM361 -16c-103 0 -184 36 -244 100c-63 68 -96 162 -96 271c0 113 38 211 106 279c60 60 141 95 245 95c185 0 293 -98 317 -248h-172c-13 59 -60 102 -139 102
c-118 0 -177 -98 -177 -228c0 -132 68 -228 180 -228c93 0 147 61 155 125v2h-134v130h298v-384h-124l-10 86h-2c-47 -73 -116 -102 -203 -102z" />
    <glyph glyph-name="gbreve" unicode="&#x11f;" horiz-adv-x="572" 
d="M277 -177c-141 0 -234 57 -250 165h158c9 -27 35 -50 90 -50c69 0 98 35 98 98v51h-4c-31 -35 -68 -59 -131 -59c-115 0 -222 86 -222 243c0 149 87 256 215 256c68 0 113 -27 144 -70h2v55h156v-462c0 -77 -27 -133 -68 -170c-45 -40 -112 -57 -188 -57zM276 149
c71 0 104 56 104 128c0 69 -36 127 -104 127c-61 0 -101 -49 -101 -128c0 -77 40 -127 101 -127zM284 566c-91 0 -160 57 -163 145h92c3 -28 27 -47 70 -47c40 0 66 22 69 47h92c-4 -85 -67 -145 -160 -145z" />
    <glyph glyph-name="Gdotaccent" unicode="&#x120;" horiz-adv-x="737" 
d="M285 753v130h162v-130h-162zM361 -16c-103 0 -184 36 -244 100c-63 68 -96 162 -96 271c0 113 38 211 106 279c60 60 141 95 245 95c185 0 293 -98 317 -248h-172c-13 59 -60 102 -139 102c-118 0 -177 -98 -177 -228c0 -132 68 -228 180 -228c93 0 147 61 155 125v2
h-134v130h298v-384h-124l-10 86h-2c-47 -73 -116 -102 -203 -102z" />
    <glyph glyph-name="gdotaccent" unicode="&#x121;" horiz-adv-x="572" 
d="M277 -177c-141 0 -234 57 -250 165h158c9 -27 35 -50 90 -50c69 0 98 35 98 98v51h-4c-31 -35 -68 -59 -131 -59c-115 0 -222 86 -222 243c0 149 87 256 215 256c68 0 113 -27 144 -70h2v55h156v-462c0 -77 -27 -133 -68 -170c-45 -40 -112 -57 -188 -57zM276 149
c71 0 104 56 104 128c0 69 -36 127 -104 127c-61 0 -101 -49 -101 -128c0 -77 40 -127 101 -127zM202 583v132h162v-132h-162z" />
    <glyph glyph-name="uni0122" unicode="&#x122;" horiz-adv-x="737" 
d="M296 -263v48c35 8 66 25 66 60h-63v108h137v-87c0 -85 -64 -124 -140 -129zM361 -16c-103 0 -184 36 -244 100c-63 68 -96 162 -96 271c0 113 38 211 106 279c60 60 141 95 245 95c185 0 293 -98 317 -248h-172c-13 59 -60 102 -139 102c-118 0 -177 -98 -177 -228
c0 -132 68 -228 180 -228c93 0 147 61 155 125v2h-134v130h298v-384h-124l-10 86h-2c-47 -73 -116 -102 -203 -102z" />
    <glyph glyph-name="uni0123" unicode="&#x123;" horiz-adv-x="572" 
d="M212 587v87c0 85 65 124 141 129v-48c-36 -8 -67 -25 -67 -60h64v-108h-138zM277 -177c-141 0 -234 57 -250 165h158c9 -27 35 -50 90 -50c69 0 98 35 98 98v51h-4c-31 -35 -68 -59 -131 -59c-115 0 -222 86 -222 243c0 149 87 256 215 256c68 0 113 -27 144 -70h2v55
h156v-462c0 -77 -27 -133 -68 -170c-45 -40 -112 -57 -188 -57zM276 149c71 0 104 56 104 128c0 69 -36 127 -104 127c-61 0 -101 -49 -101 -128c0 -77 40 -127 101 -127z" />
    <glyph glyph-name="Hcircumflex" unicode="&#x124;" horiz-adv-x="703" 
d="M49 0v715h177v-271h251v271h177v-715h-177v298h-251v-298h-177zM166 750l107 125h156l107 -125h-137l-45 54h-2l-46 -54h-140z" />
    <glyph glyph-name="hcircumflex" unicode="&#x125;" horiz-adv-x="570" 
d="M39 0v715h163v-266h3c37 49 80 78 152 78c112 0 178 -80 178 -194v-333h-163v300c0 55 -27 91 -80 91c-55 0 -90 -44 -90 -108v-283h-163zM102 750l107 125h156l107 -125h-137l-45 54h-2l-46 -54h-140z" />
    <glyph glyph-name="Hbar" unicode="&#x126;" horiz-adv-x="703" 
d="M-5 519v86h54v110h177v-110h251v110h177v-110h54v-86h-54v-519h-177v298h-251v-298h-177v519h-54zM226 444h251v75h-251v-75z" />
    <glyph glyph-name="hbar" unicode="&#x127;" horiz-adv-x="570" 
d="M-12 566v82h51v67h163v-67h121v-82h-121v-117h3c37 49 80 78 152 78c112 0 178 -80 178 -194v-333h-163v300c0 55 -27 91 -80 91c-55 0 -90 -44 -90 -108v-283h-163v566h-51z" />
    <glyph glyph-name="Itilde" unicode="&#x128;" horiz-adv-x="276" 
d="M50 0v715h177v-715h-177zM56 751h-84c0 91 46 135 103 135c25 0 47 -8 66 -19c23 -11 34 -18 49 -18c21 0 27 14 30 35h84c0 -79 -35 -132 -100 -132c-27 0 -47 8 -66 16c-24 11 -36 19 -52 19c-17 0 -27 -12 -30 -36z" />
    <glyph glyph-name="itilde" unicode="&#x129;" horiz-adv-x="241" 
d="M39 0v512h163v-512h-163zM52 571h-82c0 91 41 135 93 135c23 0 44 -9 61 -18c20 -11 29 -16 40 -16c19 0 22 11 25 32h81c0 -79 -30 -132 -89 -132c-24 0 -44 7 -61 16c-23 11 -32 17 -43 17c-15 0 -23 -11 -25 -34z" />
    <glyph glyph-name="Imacron" unicode="&#x12a;" horiz-adv-x="276" 
d="M50 0v715h177v-715h-177zM-5 762v101h286v-101h-286z" />
    <glyph glyph-name="imacron" unicode="&#x12b;" horiz-adv-x="241" 
d="M39 0v512h163v-512h-163zM-10 587v101h261v-101h-261z" />
    <glyph glyph-name="Iogonek" unicode="&#x12e;" horiz-adv-x="276" 
d="M167 -177c-87 0 -123 30 -123 86c0 43 29 72 60 91h-54v715h177v-710c-36 -24 -60 -47 -60 -68c0 -17 11 -25 32 -25c12 0 22 2 30 5h1v-85c-13 -5 -32 -9 -63 -9z" />
    <glyph glyph-name="iogonek" unicode="&#x12f;" horiz-adv-x="241" 
d="M142 -177c-81 0 -120 29 -120 84c0 48 38 77 69 93h-52v512h163v-508c-36 -24 -57 -46 -57 -67c0 -17 10 -25 30 -25c12 0 22 2 30 5h1v-85c-13 -5 -33 -9 -64 -9zM39 583v132h163v-132h-163z" />
    <glyph glyph-name="Idotaccent" unicode="&#x130;" horiz-adv-x="276" 
d="M50 0v715h177v-715h-177zM57 753v130h162v-130h-162z" />
    <glyph glyph-name="dotlessi" unicode="&#x131;" horiz-adv-x="241" 
d="M39 0v512h163v-512h-163z" />
    <glyph glyph-name="IJ" unicode="&#x132;" horiz-adv-x="814" 
d="M50 0v715h177v-715h-177zM532 -13c-168 0 -250 92 -250 228v63h161v-59c0 -61 29 -86 78 -86c52 0 74 32 74 84v498h177v-502c0 -65 -17 -117 -51 -155c-40 -44 -105 -71 -189 -71z" />
    <glyph glyph-name="ij" unicode="&#x133;" horiz-adv-x="481" 
d="M39 0v512h163v-512h-163zM39 583v132h163v-132h-163zM285 -172c-28 0 -67 3 -92 8v113c57 0 86 0 86 55v508h163v-516c0 -68 -15 -103 -39 -128c-29 -29 -69 -40 -118 -40zM279 583v132h163v-132h-163z" />
    <glyph glyph-name="Jcircumflex" unicode="&#x134;" horiz-adv-x="545" 
d="M263 -13c-168 0 -250 92 -250 228v63h161v-59c0 -61 29 -86 78 -86c52 0 74 32 74 84v498h177v-502c0 -65 -17 -117 -51 -155c-40 -44 -105 -71 -189 -71zM228 750l107 125h156l107 -125h-137l-45 54h-2l-46 -54h-140z" />
    <glyph glyph-name="jcircumflex" unicode="&#x135;" horiz-adv-x="241" 
d="M-42 574l81 137h164l79 -137h-129l-30 62h-2l-31 -62h-132zM45 -172c-28 0 -67 3 -92 8v113c57 0 86 0 86 55v508h163v-516c0 -68 -15 -103 -39 -128c-29 -29 -69 -40 -118 -40z" />
    <glyph glyph-name="uni0136" unicode="&#x136;" horiz-adv-x="697" 
d="M272 -263v48c35 8 66 25 66 60h-63v108h137v-87c0 -85 -64 -124 -140 -129zM49 0v715h177v-259l246 259h210l-274 -287l290 -428h-206l-206 309l-60 -63v-246h-177z" />
    <glyph glyph-name="uni0137" unicode="&#x137;" horiz-adv-x="560" 
d="M216 -263v48c35 8 66 25 66 60h-63v108h137v-87c0 -85 -64 -124 -140 -129zM39 0v715h161v-376l152 173h188l-180 -192l201 -320h-189l-123 209l-49 -52v-157h-161z" />
    <glyph glyph-name="Lacute" unicode="&#x139;" horiz-adv-x="565" 
d="M73 750l43 130h187l-106 -130h-124zM49 0v715h177v-565h321v-150h-498z" />
    <glyph glyph-name="lacute" unicode="&#x13a;" horiz-adv-x="245" 
d="M57 750l43 130h187l-106 -130h-124zM40 0v715h165v-715h-165z" />
    <glyph glyph-name="uni013B" unicode="&#x13b;" horiz-adv-x="565" 
d="M228 -263v48c35 8 66 25 66 60h-63v108h137v-87c0 -85 -64 -124 -140 -129zM49 0v715h177v-565h321v-150h-498z" />
    <glyph glyph-name="uni013C" unicode="&#x13c;" horiz-adv-x="245" 
d="M53 -263v48c35 8 66 25 66 60h-63v108h137v-87c0 -85 -64 -124 -140 -129zM40 0v715h165v-715h-165z" />
    <glyph glyph-name="Lcaron" unicode="&#x13d;" horiz-adv-x="565" 
d="M331 514v49c37 5 61 17 61 45h-59v107h131v-83c0 -80 -57 -115 -133 -118zM49 0v715h177v-565h321v-150h-498z" />
    <glyph glyph-name="lcaron" unicode="&#x13e;" horiz-adv-x="245" 
d="M240 524v47c35 5 58 16 58 43h-57v101h125v-79c0 -76 -54 -109 -126 -112zM40 0v715h165v-715h-165z" />
    <glyph glyph-name="Ldot" unicode="&#x13f;" horiz-adv-x="565" 
d="M49 0v715h177v-565h321v-150h-498zM356 267v168h171v-168h-171z" />
    <glyph glyph-name="ldot" unicode="&#x140;" horiz-adv-x="413" 
d="M40 0v715h165v-715h-165zM249 267v165h160v-165h-160z" />
    <glyph glyph-name="Lslash" unicode="&#x141;" horiz-adv-x="572" 
d="M57 0v217l-61 -31v117l61 31v381h177v-288l191 100v-117l-191 -100v-160h321v-150h-498z" />
    <glyph glyph-name="lslash" unicode="&#x142;" horiz-adv-x="276" 
d="M55 0v230l-53 -39v117l53 39v368h165v-246l60 44v-117l-60 -44v-352h-165z" />
    <glyph glyph-name="Nacute" unicode="&#x143;" horiz-adv-x="710" 
d="M296 750l43 130h187l-106 -130h-124zM49 0v715h178l212 -359c5 -11 18 -33 29 -53c7 -12 13 -25 20 -38h2c-1 16 -1 31 -1 46c-1 25 -1 52 -1 65v339h173v-715h-178l-210 354c-7 9 -19 32 -30 55c-7 13 -14 26 -21 41h-2c0 -17 0 -34 1 -49c0 -27 1 -56 1 -68v-333h-173z
" />
    <glyph glyph-name="nacute" unicode="&#x144;" horiz-adv-x="570" 
d="M224 572l57 148h188l-121 -148h-124zM39 0v512h157v-70h3c39 56 86 85 158 85c112 0 178 -80 178 -194v-333h-163v300c0 55 -27 91 -80 91c-55 0 -90 -44 -90 -108v-283h-163z" />
    <glyph glyph-name="uni0145" unicode="&#x145;" horiz-adv-x="710" 
d="M282 -262v48c35 8 66 25 66 60h-63v108h137v-87c0 -85 -64 -124 -140 -129zM49 0v715h178l212 -359c5 -11 18 -33 29 -53c7 -12 13 -25 20 -38h2c-1 16 -1 31 -1 46c-1 25 -1 52 -1 65v339h173v-715h-178l-210 354c-7 9 -19 32 -30 55c-7 13 -14 26 -21 41h-2
c0 -17 0 -34 1 -49c0 -27 1 -56 1 -68v-333h-173z" />
    <glyph glyph-name="uni0146" unicode="&#x146;" horiz-adv-x="570" 
d="M217 -263v48c35 8 66 25 66 60h-63v108h137v-87c0 -85 -64 -124 -140 -129zM39 0v512h157v-70h3c39 56 86 85 158 85c112 0 178 -80 178 -194v-333h-163v300c0 55 -27 91 -80 91c-55 0 -90 -44 -90 -108v-283h-163z" />
    <glyph glyph-name="Ncaron" unicode="&#x147;" horiz-adv-x="710" 
d="M283 750l-106 125h137l45 -54h2l45 54h140l-106 -125h-157zM49 0v715h178l212 -359c5 -11 18 -33 29 -53c7 -12 13 -25 20 -38h2c-1 16 -1 31 -1 46c-1 25 -1 52 -1 65v339h173v-715h-178l-210 354c-7 9 -19 32 -30 55c-7 13 -14 26 -21 41h-2c0 -17 0 -34 1 -49
c0 -27 1 -56 1 -68v-333h-173z" />
    <glyph glyph-name="ncaron" unicode="&#x148;" horiz-adv-x="570" 
d="M212 571l-106 138h137l45 -66h2l45 66h140l-106 -138h-157zM39 0v512h157v-70h3c39 56 86 85 158 85c112 0 178 -80 178 -194v-333h-163v300c0 55 -27 91 -80 91c-55 0 -90 -44 -90 -108v-283h-163z" />
    <glyph glyph-name="napostrophe" unicode="&#x149;" horiz-adv-x="570" 
d="M39 0v512h157v-70h3c39 56 86 85 158 85c112 0 178 -80 178 -194v-333h-163v300c0 55 -27 91 -80 91c-55 0 -90 -44 -90 -108v-283h-163zM-42 518v49c35 4 60 16 60 44h-59v104h129v-82c0 -78 -56 -112 -130 -115z" />
    <glyph glyph-name="Omacron" unicode="&#x14c;" horiz-adv-x="747" 
d="M230 762v101h286v-101h-286zM374 127c116 0 173 98 173 229s-57 230 -173 230c-115 0 -174 -99 -174 -230s59 -229 174 -229zM373 -17c-216 0 -353 159 -353 373s137 373 353 373s354 -159 354 -373s-138 -373 -354 -373z" />
    <glyph glyph-name="omacron" unicode="&#x14d;" horiz-adv-x="579" 
d="M147 587v101h286v-101h-286zM289 100c72 0 109 62 109 155s-37 156 -109 156s-108 -63 -108 -156s36 -155 108 -155zM290 -16c-165 0 -274 116 -274 271s109 271 274 271s273 -116 273 -271s-108 -271 -273 -271z" />
    <glyph glyph-name="Obreve" unicode="&#x14e;" horiz-adv-x="747" 
d="M375 744c-91 0 -160 57 -163 145h92c3 -28 27 -47 70 -47c40 0 66 22 69 47h92c-4 -85 -67 -145 -160 -145zM374 127c116 0 173 98 173 229s-57 230 -173 230c-115 0 -174 -99 -174 -230s59 -229 174 -229zM373 -17c-216 0 -353 159 -353 373s137 373 353 373
s354 -159 354 -373s-138 -373 -354 -373z" />
    <glyph glyph-name="obreve" unicode="&#x14f;" horiz-adv-x="579" 
d="M289 100c72 0 109 62 109 155s-37 156 -109 156s-108 -63 -108 -156s36 -155 108 -155zM290 -16c-165 0 -274 116 -274 271s109 271 274 271s273 -116 273 -271s-108 -271 -273 -271zM291 566c-91 0 -160 57 -163 145h92c3 -28 27 -47 70 -47c40 0 66 22 69 47h92
c-4 -85 -67 -145 -160 -145z" />
    <glyph glyph-name="Ohungarumlaut" unicode="&#x150;" horiz-adv-x="747" 
d="M374 127c116 0 173 98 173 229s-57 230 -173 230c-115 0 -174 -99 -174 -230s59 -229 174 -229zM373 -17c-216 0 -353 159 -353 373s137 373 353 373s354 -159 354 -373s-138 -373 -354 -373zM221 750l45 140h158l-102 -140h-101zM416 750l46 140h158l-103 -140h-101z
" />
    <glyph glyph-name="ohungarumlaut" unicode="&#x151;" horiz-adv-x="579" 
d="M138 572l49 148h158l-106 -148h-101zM333 572l49 148h158l-106 -148h-101zM289 100c72 0 109 62 109 155s-37 156 -109 156s-108 -63 -108 -156s36 -155 108 -155zM290 -16c-165 0 -274 116 -274 271s109 271 274 271s273 -116 273 -271s-108 -271 -273 -271z" />
    <glyph glyph-name="Racute" unicode="&#x154;" horiz-adv-x="671" 
d="M49 0v715h342c142 0 250 -73 250 -206c0 -84 -40 -144 -124 -173v-3c63 -21 93 -59 104 -131c16 -94 4 -184 30 -193v-9h-172c-19 11 -16 95 -27 166c-9 67 -43 102 -119 102h-107v-268h-177zM226 399h133c71 0 106 32 106 87c0 52 -34 89 -102 89h-137v-176zM263 750
l43 130h187l-106 -130h-124z" />
    <glyph glyph-name="racute" unicode="&#x155;" horiz-adv-x="383" 
d="M153 572l57 148h188l-121 -148h-124zM39 0v512h156v-80h3c36 61 77 88 140 88c15 0 26 -1 32 -4v-140h-4c-100 15 -164 -34 -164 -146v-230h-163z" />
    <glyph glyph-name="uni0156" unicode="&#x156;" horiz-adv-x="671" 
d="M268 -263v48c35 8 66 25 66 60h-63v108h137v-87c0 -85 -64 -124 -140 -129zM49 0v715h342c142 0 250 -73 250 -206c0 -84 -40 -144 -124 -173v-3c63 -21 93 -59 104 -131c16 -94 4 -184 30 -193v-9h-172c-19 11 -16 95 -27 166c-9 67 -43 102 -119 102h-107v-268h-177z
M226 399h133c71 0 106 32 106 87c0 52 -34 89 -102 89h-137v-176z" />
    <glyph glyph-name="uni0157" unicode="&#x157;" horiz-adv-x="383" 
d="M46 -263v48c35 8 66 25 66 60h-63v108h137v-87c0 -85 -64 -124 -140 -129zM39 0v512h156v-80h3c36 61 77 88 140 88c15 0 26 -1 32 -4v-140h-4c-100 15 -164 -34 -164 -146v-230h-163z" />
    <glyph glyph-name="Rcaron" unicode="&#x158;" horiz-adv-x="671" 
d="M251 750l-106 125h137l45 -54h2l45 54h140l-106 -125h-157zM49 0v715h342c142 0 250 -73 250 -206c0 -84 -40 -144 -124 -173v-3c63 -21 93 -59 104 -131c16 -94 4 -184 30 -193v-9h-172c-19 11 -16 95 -27 166c-9 67 -43 102 -119 102h-107v-268h-177zM226 399h133
c71 0 106 32 106 87c0 52 -34 89 -102 89h-137v-176z" />
    <glyph glyph-name="rcaron" unicode="&#x159;" horiz-adv-x="383" 
d="M140 571l-106 138h137l45 -66h2l45 66h140l-106 -138h-157zM39 0v512h156v-80h3c36 61 77 88 140 88c15 0 26 -1 32 -4v-140h-4c-100 15 -164 -34 -164 -146v-230h-163z" />
    <glyph glyph-name="Sacute" unicode="&#x15a;" horiz-adv-x="650" 
d="M334 -17c-189 0 -316 84 -319 242h178c8 -72 55 -102 140 -102c58 0 115 21 115 75c0 57 -57 69 -156 93c-124 29 -255 67 -255 217c0 152 124 220 284 220c156 0 274 -71 282 -220h-173c-7 56 -48 86 -115 86c-63 0 -103 -27 -103 -67c0 -51 55 -62 162 -86
c132 -32 253 -72 253 -225c0 -149 -128 -233 -293 -233zM256 750l43 130h187l-106 -130h-124z" />
    <glyph glyph-name="sacute" unicode="&#x15b;" horiz-adv-x="504" 
d="M185 572l57 148h188l-121 -148h-124zM257 -16c-151 0 -244 69 -249 182h154c7 -51 39 -76 94 -76c49 0 80 18 80 51c0 47 -63 50 -130 63c-89 16 -184 38 -184 159c0 108 100 164 221 164c145 0 223 -63 231 -164h-150c-7 47 -37 60 -82 60c-40 0 -71 -15 -71 -47
c0 -36 58 -42 123 -53c90 -16 196 -38 196 -169c0 -112 -99 -170 -233 -170z" />
    <glyph glyph-name="Scircumflex" unicode="&#x15c;" horiz-adv-x="650" 
d="M334 -17c-189 0 -316 84 -319 242h178c8 -72 55 -102 140 -102c58 0 115 21 115 75c0 57 -57 69 -156 93c-124 29 -255 67 -255 217c0 152 124 220 284 220c156 0 274 -71 282 -220h-173c-7 56 -48 86 -115 86c-63 0 -103 -27 -103 -67c0 -51 55 -62 162 -86
c132 -32 253 -72 253 -225c0 -149 -128 -233 -293 -233zM137 750l107 125h156l107 -125h-137l-45 54h-2l-46 -54h-140z" />
    <glyph glyph-name="scircumflex" unicode="&#x15d;" horiz-adv-x="504" 
d="M66 574l107 137h156l107 -137h-137l-45 66h-2l-46 -66h-140zM257 -16c-151 0 -244 69 -249 182h154c7 -51 39 -76 94 -76c49 0 80 18 80 51c0 47 -63 50 -130 63c-89 16 -184 38 -184 159c0 108 100 164 221 164c145 0 223 -63 231 -164h-150c-7 47 -37 60 -82 60
c-40 0 -71 -15 -71 -47c0 -36 58 -42 123 -53c90 -16 196 -38 196 -169c0 -112 -99 -170 -233 -170z" />
    <glyph glyph-name="Scedilla" unicode="&#x15e;" horiz-adv-x="650" 
d="M298 -193c-47 0 -84 12 -112 29l20 35c19 -9 45 -15 69 -15c28 0 54 8 54 29c0 19 -17 27 -38 27c-13 0 -24 -3 -35 -7l-17 24l55 56c-167 11 -276 93 -279 240h178c8 -72 55 -102 140 -102c58 0 115 21 115 75c0 57 -57 69 -156 93c-124 29 -255 67 -255 217
c0 152 124 220 284 220c156 0 274 -71 282 -220h-173c-7 56 -48 86 -115 86c-63 0 -103 -27 -103 -67c0 -51 55 -62 162 -86c132 -32 253 -72 253 -225c0 -143 -118 -227 -274 -232l-36 -31v-2c57 7 106 -15 106 -67c0 -48 -53 -77 -125 -77z" />
    <glyph glyph-name="scedilla" unicode="&#x15f;" horiz-adv-x="504" 
d="M227 -193c-47 0 -84 12 -112 29l20 35c19 -9 45 -15 69 -15c28 0 54 8 54 29c0 19 -17 27 -38 27c-13 0 -24 -3 -35 -7l-17 24l56 56c-132 11 -212 76 -216 181h154c7 -51 39 -76 94 -76c49 0 80 18 80 51c0 47 -63 50 -130 63c-89 16 -184 38 -184 159
c0 108 100 164 221 164c145 0 223 -63 231 -164h-150c-7 47 -37 60 -82 60c-40 0 -71 -15 -71 -47c0 -36 58 -42 123 -53c90 -16 196 -38 196 -169c0 -105 -86 -161 -206 -169l-38 -32v-2c57 7 106 -15 106 -67c0 -48 -53 -77 -125 -77z" />
    <glyph glyph-name="uni0162" unicode="&#x162;" horiz-adv-x="629" 
d="M244 -263v48c35 8 66 25 66 60h-63v108h137v-87c0 -85 -64 -124 -140 -129zM225 0v565h-208v150h595v-150h-210v-565h-177z" />
    <glyph glyph-name="uni0163" unicode="&#x163;" horiz-adv-x="351" 
d="M125 -263v48c35 8 66 25 66 60h-63v108h137v-87c0 -85 -64 -124 -140 -129zM242 -6c-95 0 -163 31 -163 141v275h-68v102h68v162h159v-162h93v-102h-93v-240c0 -40 22 -50 57 -50c15 0 29 1 36 1v-119c-15 -4 -45 -8 -89 -8z" />
    <glyph glyph-name="uni021A" unicode="&#x21a;" horiz-adv-x="629" 
d="M244 -263v48c35 8 66 25 66 60h-63v108h137v-87c0 -85 -64 -124 -140 -129zM225 0v565h-208v150h595v-150h-210v-565h-177z" />
    <glyph glyph-name="uni021B" unicode="&#x21b;" horiz-adv-x="351" 
d="M125 -263v48c35 8 66 25 66 60h-63v108h137v-87c0 -85 -64 -124 -140 -129zM242 -6c-95 0 -163 31 -163 141v275h-68v102h68v162h159v-162h93v-102h-93v-240c0 -40 22 -50 57 -50c15 0 29 1 36 1v-119c-15 -4 -45 -8 -89 -8z" />
    <glyph glyph-name="Tcaron" unicode="&#x164;" horiz-adv-x="629" 
d="M236 750l-106 125h137l45 -54h2l45 54h140l-106 -125h-157zM225 0v565h-208v150h595v-150h-210v-565h-177z" />
    <glyph glyph-name="tcaron" unicode="&#x165;" horiz-adv-x="351" 
d="M11 410v102h68v162h159v-162h93v-102h-93v-240c0 -39 22 -50 57 -50c15 0 31 1 36 1v-119c-15 -4 -45 -8 -89 -8c-95 0 -163 31 -163 141v275h-68zM273 533v47c35 4 58 16 58 40h-57v95h125v-77c0 -71 -51 -102 -126 -105z" />
    <glyph glyph-name="Tbar" unicode="&#x166;" horiz-adv-x="629" 
d="M91 295v105h134v165h-208v150h595v-150h-210v-165h136v-105h-136v-295h-177v295h-134z" />
    <glyph glyph-name="tbar" unicode="&#x167;" horiz-adv-x="351" 
d="M11 410v102h68v162h159v-162h93v-102h-93v-61h93v-82h-93v-97c0 -39 22 -50 57 -50c15 0 29 1 36 1v-119c-15 -4 -45 -8 -89 -8c-95 0 -163 31 -163 141v132h-69v82h69v61h-68z" />
    <glyph glyph-name="Utilde" unicode="&#x168;" horiz-adv-x="686" 
d="M261 751h-84c0 91 46 135 103 135c25 0 47 -8 66 -19c23 -11 34 -18 49 -18c21 0 27 14 30 35h84c0 -79 -35 -132 -100 -132c-27 0 -47 8 -66 16c-24 11 -36 19 -52 19c-17 0 -27 -12 -30 -36zM344 -13c-201 0 -300 97 -300 265v463h177v-469c0 -71 35 -117 123 -117
c83 0 121 49 121 120v466h177v-463c0 -165 -99 -265 -298 -265z" />
    <glyph glyph-name="utilde" unicode="&#x169;" 
d="M215 -15c-119 0 -180 76 -180 191v336h162v-302c0 -56 25 -87 77 -87c56 0 90 42 90 103v286h163v-512h-156v63h-3c-37 -51 -81 -78 -153 -78zM200 571h-84c0 91 46 135 103 135c25 0 47 -8 66 -19c23 -11 34 -18 49 -18c21 0 27 14 30 35h84c0 -79 -35 -132 -100 -132
c-27 0 -47 8 -66 16c-24 11 -36 19 -52 19c-17 0 -27 -12 -30 -36z" />
    <glyph glyph-name="Umacron" unicode="&#x16a;" horiz-adv-x="686" 
d="M199 762v101h286v-101h-286zM344 -13c-201 0 -300 97 -300 265v463h177v-469c0 -71 35 -117 123 -117c83 0 121 49 121 120v466h177v-463c0 -165 -99 -265 -298 -265z" />
    <glyph glyph-name="umacron" unicode="&#x16b;" 
d="M215 -15c-119 0 -180 76 -180 191v336h162v-302c0 -56 25 -87 77 -87c56 0 90 42 90 103v286h163v-512h-156v63h-3c-37 -51 -81 -78 -153 -78zM139 587v101h286v-101h-286z" />
    <glyph glyph-name="Ubreve" unicode="&#x16c;" horiz-adv-x="686" 
d="M344 744c-91 0 -160 57 -163 145h92c3 -28 27 -47 70 -47c40 0 66 22 69 47h92c-4 -85 -67 -145 -160 -145zM344 -13c-201 0 -300 97 -300 265v463h177v-469c0 -71 35 -117 123 -117c83 0 121 49 121 120v466h177v-463c0 -165 -99 -265 -298 -265z" />
    <glyph glyph-name="ubreve" unicode="&#x16d;" 
d="M215 -15c-119 0 -180 76 -180 191v336h162v-302c0 -56 25 -87 77 -87c56 0 90 42 90 103v286h163v-512h-156v63h-3c-37 -51 -81 -78 -153 -78zM283 566c-91 0 -160 57 -163 145h92c3 -28 27 -47 70 -47c40 0 66 22 69 47h92c-4 -85 -67 -145 -160 -145z" />
    <glyph glyph-name="Uring" unicode="&#x16e;" horiz-adv-x="686" 
d="M344 -13c-201 0 -300 97 -300 265v463h177v-469c0 -71 35 -117 123 -117c83 0 121 49 121 120v466h177v-463c0 -165 -99 -265 -298 -265zM342 782c25 0 42 20 42 43s-17 43 -42 43c-24 0 -41 -20 -41 -43s17 -43 41 -43zM342 727c-56 0 -102 42 -102 98
c0 55 46 98 102 98s102 -43 102 -98c0 -56 -46 -98 -102 -98z" />
    <glyph glyph-name="uring" unicode="&#x16f;" 
d="M281 614c25 0 42 19 42 42s-17 43 -42 43c-24 0 -41 -20 -41 -43s17 -42 41 -42zM281 558c-56 0 -102 43 -102 98c0 56 46 99 102 99s102 -43 102 -99c0 -55 -46 -98 -102 -98zM215 -15c-119 0 -180 76 -180 191v336h162v-302c0 -56 25 -87 77 -87c56 0 90 42 90 103v286
h163v-512h-156v63h-3c-37 -51 -81 -78 -153 -78z" />
    <glyph glyph-name="Uhungarumlaut" unicode="&#x170;" horiz-adv-x="686" 
d="M344 -13c-201 0 -300 97 -300 265v463h177v-469c0 -71 35 -117 123 -117c83 0 121 49 121 120v466h177v-463c0 -165 -99 -265 -298 -265zM190 750l45 140h158l-102 -140h-101zM385 750l46 140h158l-103 -140h-101z" />
    <glyph glyph-name="uhungarumlaut" unicode="&#x171;" 
d="M215 -15c-119 0 -180 76 -180 191v336h162v-302c0 -56 25 -87 77 -87c56 0 90 42 90 103v286h163v-512h-156v63h-3c-37 -51 -81 -78 -153 -78zM130 572l49 148h158l-106 -148h-101zM325 572l49 148h158l-106 -148h-101z" />
    <glyph glyph-name="Uogonek" unicode="&#x172;" horiz-adv-x="686" 
d="M399 -177c-87 0 -123 29 -123 84c0 39 21 62 44 81c-185 7 -276 103 -276 264v463h177v-469c0 -71 35 -117 123 -117c83 0 121 49 121 120v466h177v-463c0 -113 -49 -191 -141 -234c-65 -31 -102 -50 -102 -81c0 -17 11 -25 32 -25c12 0 22 2 30 5h1v-85
c-13 -5 -32 -9 -63 -9z" />
    <glyph glyph-name="uogonek" unicode="&#x173;" 
d="M466 -177c-83 0 -121 29 -121 84c0 48 39 77 71 93h-45v63h-3c-37 -51 -81 -78 -153 -78c-119 0 -180 76 -180 191v336h162v-302c0 -56 25 -87 77 -87c56 0 90 42 90 103v286h163v-506c-36 -25 -59 -48 -59 -69c0 -17 10 -25 31 -25c12 0 22 2 30 5h1v-85
c-13 -5 -32 -9 -64 -9z" />
    <glyph glyph-name="Wcircumflex" unicode="&#x174;" horiz-adv-x="940" 
d="M196 0l-196 715h179l72 -300c8 -35 15 -78 22 -114c3 -21 7 -42 11 -63h2c3 19 7 38 11 58c7 33 16 76 24 112l67 307h164l67 -305c8 -37 16 -78 23 -113c3 -20 7 -40 11 -59h2l12 63c7 36 16 80 24 116l71 298h178l-196 -715h-173l-75 343c-7 28 -12 61 -17 88
c-3 15 -5 30 -8 45h-2c-3 -15 -5 -30 -8 -45c-5 -27 -9 -60 -16 -88l-75 -343h-174zM285 750l107 125h156l107 -125h-137l-45 54h-2l-46 -54h-140z" />
    <glyph glyph-name="wcircumflex" unicode="&#x175;" horiz-adv-x="783" 
d="M206 574l107 137h156l107 -137h-137l-45 66h-2l-46 -66h-140zM155 0l-157 512h166l56 -212c5 -21 12 -45 16 -65c3 -12 5 -23 7 -34h2l7 35c4 20 9 44 16 67l54 209h138l56 -209c5 -23 11 -48 16 -68c3 -12 5 -24 8 -35h2c3 11 5 23 8 35c5 20 9 44 16 65l57 212h161
l-157 -512h-153l-60 232c-7 20 -11 42 -15 61c-3 11 -5 21 -7 31h-2c-2 -10 -4 -20 -7 -31c-4 -19 -11 -41 -16 -61l-61 -232h-151z" />
    <glyph glyph-name="Ycircumflex" unicode="&#x176;" horiz-adv-x="663" 
d="M243 0v264l-242 451h193l92 -185c12 -25 23 -52 32 -73l15 -36h2l15 36c9 21 22 48 34 73l91 185h187l-242 -451v-264h-177zM148 750l107 125h156l107 -125h-137l-45 54h-2l-46 -54h-140z" />
    <glyph glyph-name="ycircumflex" unicode="&#x177;" horiz-adv-x="529" 
d="M56 -169v127h56c48 0 67 19 67 54c0 23 -10 51 -31 106l-151 394h172l69 -218c8 -25 15 -55 22 -78c3 -13 7 -27 10 -40h2c3 13 6 27 9 40c5 23 13 53 21 78l67 218h163l-177 -519c-40 -120 -91 -162 -193 -162h-106zM82 574l107 137h156l107 -137h-137l-45 66h-2
l-46 -66h-140z" />
    <glyph glyph-name="Zacute" unicode="&#x179;" horiz-adv-x="648" 
d="M26 0v141l309 370c7 7 17 20 28 32c6 7 13 14 20 21v3c-10 -1 -19 -1 -28 -1c-15 -1 -32 -1 -40 -1h-264v150h557v-139l-300 -360c-9 -11 -23 -24 -35 -39c-7 -8 -15 -16 -23 -25v-3c11 0 21 0 31 1c17 0 37 1 48 1h292v-151h-595zM266 750l43 130h187l-106 -130h-124z
" />
    <glyph glyph-name="zacute" unicode="&#x17a;" horiz-adv-x="505" 
d="M203 572l57 148h188l-121 -148h-124zM24 0v121l203 219c7 7 18 16 27 27c5 6 11 12 17 18v3c-9 -1 -18 -1 -26 -1h-37h-160v124h420v-119l-194 -211l-32 -32c-7 -7 -13 -14 -20 -21v-3h29c16 0 35 1 47 1h185v-126h-459z" />
    <glyph glyph-name="Zdotaccent" unicode="&#x17b;" horiz-adv-x="648" 
d="M251 753v130h162v-130h-162zM26 0v141l309 370c7 7 17 20 28 32c6 7 13 14 20 21v3c-10 -1 -19 -1 -28 -1c-15 -1 -32 -1 -40 -1h-264v150h557v-139l-300 -360c-9 -11 -23 -24 -35 -39c-7 -8 -15 -16 -23 -25v-3c11 0 21 0 31 1c17 0 37 1 48 1h292v-151h-595z" />
    <glyph glyph-name="zdotaccent" unicode="&#x17c;" horiz-adv-x="505" 
d="M24 0v121l203 219c7 7 18 16 27 27c5 6 11 12 17 18v3c-9 -1 -18 -1 -26 -1h-37h-160v124h420v-119l-194 -211l-32 -32c-7 -7 -13 -14 -20 -21v-3h29c16 0 35 1 47 1h185v-126h-459zM188 583v132h162v-132h-162z" />
    <glyph glyph-name="Zcaron" unicode="&#x17d;" horiz-adv-x="648" 
d="M254 750l-106 125h137l45 -54h2l45 54h140l-106 -125h-157zM26 0v141l309 370c7 7 17 20 28 32c6 7 13 14 20 21v3c-10 -1 -19 -1 -28 -1c-15 -1 -32 -1 -40 -1h-264v150h557v-139l-300 -360c-9 -11 -23 -24 -35 -39c-7 -8 -15 -16 -23 -25v-3c11 0 21 0 31 1
c17 0 37 1 48 1h292v-151h-595z" />
    <glyph glyph-name="zcaron" unicode="&#x17e;" horiz-adv-x="505" 
d="M191 571l-106 138h137l45 -66h2l45 66h140l-106 -138h-157zM24 0v121l203 219c7 7 18 16 27 27c5 6 11 12 17 18v3c-9 -1 -18 -1 -26 -1h-37h-160v124h420v-119l-194 -211l-32 -32c-7 -7 -13 -14 -20 -21v-3h29c16 0 35 1 47 1h185v-126h-459z" />
    <glyph glyph-name="uni0218" unicode="&#x218;" horiz-adv-x="650" 
d="M252 -263v48c35 8 66 25 66 60h-63v108h137v-87c0 -85 -64 -124 -140 -129zM334 -17c-189 0 -316 84 -319 242h178c8 -72 55 -102 140 -102c58 0 115 21 115 75c0 57 -57 69 -156 93c-124 29 -255 67 -255 217c0 152 124 220 284 220c156 0 274 -71 282 -220h-173
c-7 56 -48 86 -115 86c-63 0 -103 -27 -103 -67c0 -51 55 -62 162 -86c132 -32 253 -72 253 -225c0 -149 -128 -233 -293 -233z" />
    <glyph glyph-name="uni0219" unicode="&#x219;" horiz-adv-x="504" 
d="M181 -263v48c35 8 66 25 66 60h-63v108h137v-87c0 -85 -64 -124 -140 -129zM257 -16c-151 0 -244 69 -249 182h154c7 -51 39 -76 94 -76c49 0 80 18 80 51c0 47 -63 50 -130 63c-89 16 -184 38 -184 159c0 108 100 164 221 164c145 0 223 -63 231 -164h-150
c-7 47 -37 60 -82 60c-40 0 -71 -15 -71 -47c0 -36 58 -42 123 -53c90 -16 196 -38 196 -169c0 -112 -99 -170 -233 -170z" />
    <glyph glyph-name="caron" unicode="&#x2c7;" horiz-adv-x="500" 
d="M172 571l-106 138h137l45 -66h2l45 66h140l-106 -138h-157z" />
    <glyph glyph-name="uni02C9" unicode="&#x2c9;" horiz-adv-x="500" 
d="M110 592v101h286v-101h-286z" />
    <glyph glyph-name="breve" unicode="&#x2d8;" horiz-adv-x="500" 
d="M271 566c-91 0 -160 57 -163 145h92c3 -28 27 -47 70 -47c40 0 66 22 69 47h92c-4 -85 -67 -145 -160 -145z" />
    <glyph glyph-name="dotaccent" unicode="&#x2d9;" horiz-adv-x="500" 
d="M169 583v132h162v-132h-162z" />
    <glyph glyph-name="ring" unicode="&#x2da;" horiz-adv-x="500" 
d="M250 614c25 0 42 19 42 42s-17 43 -42 43c-24 0 -41 -20 -41 -43s17 -42 41 -42zM250 558c-56 0 -102 43 -102 98c0 56 46 99 102 99s102 -43 102 -99c0 -55 -46 -98 -102 -98z" />
    <glyph glyph-name="ogonek" unicode="&#x2db;" horiz-adv-x="500" 
d="M245 -177c-85 0 -124 29 -124 84c0 47 38 78 70 93h101c-27 -23 -48 -42 -48 -63c0 -17 10 -25 31 -25c12 0 22 2 30 5h1v-85c-13 -5 -33 -9 -61 -9z" />
    <glyph glyph-name="hungarumlaut" unicode="&#x2dd;" horiz-adv-x="500" 
d="M96 572l49 148h158l-106 -148h-101zM291 572l49 148h158l-106 -148h-101z" />
    <glyph glyph-name="uni0394" unicode="&#x394;" horiz-adv-x="680" 
d="M198 133h276l-106 304c-7 19 -13 43 -20 66c-3 13 -7 26 -10 40h-2c-4 -14 -8 -27 -11 -40c-7 -23 -13 -47 -20 -66zM22 0v110l227 605h181l229 -604v-111h-637z" />
    <glyph glyph-name="uni03A9" unicode="&#x3a9;" horiz-adv-x="741" 
d="M29 0v133h101v3c-76 48 -109 138 -109 245c0 202 139 348 350 348c210 0 349 -146 349 -348c0 -107 -33 -197 -108 -245v-3h100v-133h-306v128c92 19 134 100 134 235c0 140 -56 223 -169 223s-170 -83 -170 -223c0 -135 42 -216 134 -235v-128h-306z" />
    <glyph glyph-name="uni03BC" unicode="&#x3bc;" horiz-adv-x="570" 
d="M39 -169v681h162v-303c0 -58 26 -87 77 -87c56 0 90 40 90 103v287h163v-512h-156v63h-3c-31 -51 -71 -76 -121 -76c-24 0 -39 7 -50 15h-2v-171h-160z" />
    <glyph glyph-name="pi" unicode="&#x3c0;" horiz-adv-x="633" 
d="M530 -5c-89 0 -153 33 -153 136v279h-132v-410h-159v410h-71v102h594v-102h-73v-254c0 -31 10 -42 37 -42c11 0 19 1 26 2v-114c-17 -4 -34 -7 -69 -7z" />
    <glyph glyph-name="fraction" unicode="&#x2044;" horiz-adv-x="284" 
d="M-181 0l544 715h102l-545 -715h-101z" />
    <glyph glyph-name="uni2113" unicode="&#x2113;" horiz-adv-x="401" 
d="M226 -5c-103 0 -168 30 -168 155v26c-16 -5 -32 -9 -48 -13v96l48 16v281c0 120 70 167 171 167c97 0 153 -47 153 -166c0 -153 -60 -249 -168 -314v-60c0 -49 13 -63 62 -63c23 0 44 2 55 3v-119c-14 -5 -64 -9 -105 -9zM214 564v-194c5 5 9 10 14 17
c28 40 42 97 42 177c0 43 -9 56 -28 56s-28 -19 -28 -56z" />
    <glyph glyph-name="Omega" unicode="&#x2126;" horiz-adv-x="741" 
d="M29 0v133h101v3c-76 48 -109 138 -109 245c0 202 139 348 350 348c210 0 349 -146 349 -348c0 -107 -33 -197 -108 -245v-3h100v-133h-306v128c92 19 134 100 134 235c0 140 -56 223 -169 223s-170 -83 -170 -223c0 -135 42 -216 134 -235v-128h-306z" />
    <glyph glyph-name="estimated" unicode="&#x212e;" horiz-adv-x="621" 
d="M327 -11c-192 0 -302 132 -302 320c0 187 124 318 297 318c73 0 132 -20 177 -59c75 -63 97 -151 96 -267h-414v-222c35 -27 82 -42 146 -42c120 0 180 56 213 149h51c-27 -115 -115 -197 -264 -197zM181 345h262v205c-31 19 -72 32 -121 32c-60 0 -108 -16 -141 -43
v-194z" />
    <glyph glyph-name="partialdiff" unicode="&#x2202;" horiz-adv-x="580" 
d="M270 -15c-164 0 -250 96 -250 230c0 151 102 256 247 256c53 0 91 -14 116 -38c-23 92 -105 136 -234 151v138c268 -13 407 -152 407 -408c0 -204 -93 -329 -286 -329zM272 101c76 0 112 75 112 152c0 71 -33 105 -88 105c-68 0 -113 -52 -113 -143
c0 -77 34 -114 89 -114z" />
    <glyph glyph-name="Delta" unicode="&#x2206;" horiz-adv-x="680" 
d="M198 133h276l-106 304c-7 19 -13 43 -20 66c-3 13 -7 26 -10 40h-2c-4 -14 -8 -27 -11 -40c-7 -23 -13 -47 -20 -66zM22 0v110l227 605h181l229 -604v-111h-637z" />
    <glyph glyph-name="product" unicode="&#x220f;" horiz-adv-x="719" 
d="M53 -100v815h613v-815h-174v670h-265v-670h-174z" />
    <glyph glyph-name="summation" unicode="&#x2211;" horiz-adv-x="611" 
d="M32 -100v145l252 270v2l-252 258v140h540v-138h-341v-2l223 -221v-70l-230 -240v-2h358v-142h-550z" />
    <glyph glyph-name="minus" unicode="&#x2212;" 
d="M40 264v131h486v-131h-486z" />
    <glyph glyph-name="uni2215" unicode="&#x2215;" horiz-adv-x="284" 
d="M-181 0l544 701h102l-545 -701h-101z" />
    <glyph glyph-name="uni2219" unicode="&#x2219;" horiz-adv-x="235" 
d="M32 234v168h171v-168h-171z" />
    <glyph glyph-name="radical" unicode="&#x221a;" horiz-adv-x="652" 
d="M219 -100l-130 300h-75v138h187l49 -124c11 -29 21 -57 28 -78c4 -12 8 -23 11 -34h2c3 11 5 23 8 35c5 21 12 49 23 78l161 500h162l-269 -815h-157z" />
    <glyph glyph-name="infinity" unicode="&#x221e;" horiz-adv-x="725" 
d="M185 119c-105 0 -163 84 -163 186s59 186 163 186c84 0 135 -45 180 -109c45 64 94 109 174 109c97 0 164 -73 164 -186c0 -115 -67 -186 -164 -186c-79 0 -129 45 -174 108c-45 -64 -96 -108 -180 -108zM200 237c35 0 61 32 82 67c-21 36 -47 68 -82 68
c-37 0 -53 -30 -53 -67c0 -39 16 -68 53 -68zM526 237c37 0 54 29 54 68c0 37 -17 67 -54 67c-35 0 -58 -32 -79 -68c21 -35 44 -67 79 -67z" />
    <glyph glyph-name="integral" unicode="&#x222b;" horiz-adv-x="365" 
d="M90 -176c-36 0 -68 4 -95 11v120h1c13 -3 28 -4 47 -4c39 0 59 11 59 52v571c0 65 15 99 38 124c31 31 71 43 138 43c35 0 67 -3 94 -10v-121h-2c-15 3 -29 5 -48 5c-39 -1 -57 -12 -57 -52v-572c0 -64 -15 -99 -38 -123c-31 -31 -72 -44 -137 -44z" />
    <glyph glyph-name="approxequal" unicode="&#x2248;" horiz-adv-x="546" 
d="M141 125h-107c1 120 57 169 138 169c68 0 162 -34 206 -34c25 0 32 10 35 33h107c0 -104 -39 -163 -131 -163c-74 0 -166 32 -211 32c-22 0 -34 -12 -37 -37zM141 334h-107c1 119 57 168 138 168c68 0 162 -33 206 -33c25 0 32 10 35 33h107c0 -104 -39 -163 -131 -163
c-74 0 -166 32 -211 32c-22 0 -34 -12 -37 -37z" />
    <glyph glyph-name="notequal" unicode="&#x2260;" horiz-adv-x="563" 
d="M51 354v125h265l39 84h103l-39 -84h100v-125h-159l-41 -89h200v-125h-259l-38 -82h-103l38 82h-106v125h165l41 89h-206z" />
    <glyph glyph-name="lessequal" unicode="&#x2264;" horiz-adv-x="502" 
d="M455 130l-412 137v152l412 137v-130l-183 -57c-19 -7 -42 -12 -61 -17c-11 -3 -23 -6 -34 -9v-2c11 -3 23 -5 34 -8c19 -5 42 -11 61 -16l183 -53v-134zM43 0v113h412v-113h-412z" />
    <glyph glyph-name="greaterequal" unicode="&#x2265;" horiz-adv-x="502" 
d="M47 130v133l183 55c19 5 42 11 61 16c11 3 23 5 34 8v2c-11 3 -23 6 -34 9c-19 5 -42 10 -61 17l-183 55v131l412 -137v-152zM47 0v113h412v-113h-412z" />
    <glyph glyph-name="lozenge" unicode="&#x25ca;" horiz-adv-x="596" 
d="M298 139h2l113 215l-115 223h-2l-113 -217zM218 0l-202 358l201 357h161l202 -358l-201 -357h-161z" />
    <glyph glyph-name="fi" unicode="&#xfb01;" horiz-adv-x="588" 
d="M76 0v408h-67v104h67v37c0 44 10 78 30 102c41 57 132 72 228 61v-115c-61 3 -96 -4 -96 -60v-25h96v-104h-96v-408h-162zM386 0v512h163v-512h-163zM386 583v132h163v-132h-163z" />
    <glyph glyph-name="fl" unicode="&#xfb02;" horiz-adv-x="593" 
d="M77 0v408h-66v104h66v37c0 43 10 77 30 102c40 55 132 72 229 61v-115c-61 3 -96 -4 -96 -60v-25h96v-104h-96v-408h-163zM388 0v715h165v-715h-165z" />
    </font>
</defs>
</svg>
